<svg width="193" height="24" viewBox="0 0 193 24" fill="none" xmlns="http://www.w3.org/2000/svg">
<path fill-rule="evenodd" clip-rule="evenodd" d="M42.5604 3.74104C36.3149 3.74104 32.3859 8.08805 32.3859 14.1652C32.3859 20.0238 36.7256 23.9652 42.5604 23.9652C47.7231 23.9652 51.7602 21.0195 52.3212 15.8982H46.1526C45.8515 17.9258 44.7288 19.1762 42.5226 19.1762C39.8288 19.1762 38.7453 16.6362 38.7453 14.1652C38.7453 11.5156 39.3063 8.52929 42.8594 8.52929C44.4661 8.52929 45.9255 9.67591 45.9654 11.295H52.1325C51.6869 6.24692 47.3863 3.74104 42.5604 3.74104ZM110.705 3.74032C107.952 3.74032 106.017 4.98636 104.859 6.9915H104.781V4.29403H98.6129V23.4136H104.969V13.4859C104.969 10.6948 106.191 8.89432 108.409 8.89504C111.708 8.89504 111.59 11.5497 111.59 14.1637V23.4136H117.949V11.144C117.949 8.38051 117.176 3.74032 110.705 3.74032ZM129.264 3.74032C127.056 3.74032 124.812 4.11043 123.091 5.06982C121.371 6.06114 120.174 7.68383 120.063 10.1883H126.01C126.31 8.56775 127.431 7.79632 129.189 7.79632C130.499 7.79632 132.255 8.3435 132.255 9.78041C132.255 10.9633 131.656 11.3284 130.572 11.5511C126.159 12.4329 119.277 11.9561 119.277 18.1791C119.277 22.1233 122.195 23.9637 125.895 23.9637C128.217 23.9637 130.649 23.3011 132.293 21.6081C132.369 22.2343 132.442 22.8214 132.666 23.4136H139.064C138.316 21.9034 138.317 20.1334 138.317 18.5114V10.1483C138.317 4.73672 133.861 3.74032 129.263 3.74032H129.264ZM132.181 14.4605C132.331 18.404 131.318 20.0957 128.291 20.0957C126.869 20.0957 125.636 19.4679 125.636 17.9251C125.636 16.412 126.834 15.822 128.255 15.4918C129.641 15.1238 131.284 15.0157 132.181 14.4613L132.181 14.4605ZM140.392 0.032657V23.4151H146.749V0.0319313L140.392 0.032657ZM161.883 0.032657V6.35868H161.805C160.497 4.62714 158.664 3.74249 156.271 3.74249C150.771 3.74249 148.08 8.45744 148.08 13.43C148.08 18.8083 150.662 23.9652 156.757 23.9652C159.001 23.9652 160.872 23.008 162.106 21.2024H162.179V23.4144H168.241V0.032657H161.883ZM158.327 8.53074C161.095 8.53074 162.106 11.0744 162.106 13.8357C162.106 16.2654 161.433 19.1762 158.327 19.1762C155.41 19.1762 154.44 16.2661 154.44 13.6514C154.44 11.2217 155.41 8.53074 158.327 8.53074ZM169.567 0.032657V6.35723H172.543L175.514 0.032657H169.567ZM53.6507 0.032657V23.4151H63.8585C71.0721 23.4151 75.4939 19.288 75.4939 11.6281C75.4939 4.38765 71.1374 0.032657 63.8585 0.032657H53.6507ZM60.4259 5.45372H63.2823C66.9769 5.45372 68.633 7.88631 68.633 11.6099C68.633 15.7058 67.2977 17.9962 63.2823 17.9962H60.4259V5.45372ZM5.62311 0L0.71875 23.4144H7.72114L9.52598 14.1158C9.71907 13.0884 9.88338 12.0558 10.0187 11.0192H10.0891C10.1994 11.6665 10.4846 12.9481 10.7713 14.0418L13.3156 23.4144H20.2752L22.8152 14.0418C23.1048 12.9481 23.3885 11.6665 23.4974 11.0192H23.5721C23.6338 11.5163 23.829 12.9184 24.0634 14.1158L25.8683 23.4144H32.8692L27.9656 0H20.5445L17.5712 11.7602C17.3223 12.6716 17.0153 14.1477 16.8295 14.9177H16.7599C16.5712 14.1477 16.2664 12.6716 16.0182 11.7602L13.0435 0L5.62311 0ZM87.0349 3.74104C80.7676 3.74104 76.8197 8.12652 76.8197 13.8705C76.8197 19.616 80.7662 24 87.0334 24C93.3014 24 97.2456 19.6167 97.2456 13.8705C97.2456 8.12652 93.3021 3.74104 87.0349 3.74104ZM87.0334 8.52929C89.7817 8.52929 90.8848 10.8102 90.8848 13.8705C90.8848 16.9338 89.7824 19.2118 87.0341 19.2118C84.2837 19.2118 83.1806 16.9338 83.1806 13.8705C83.1806 10.8095 84.283 8.52929 87.0334 8.52929ZM183.076 3.73886C179.313 3.73886 174.164 4.99072 174.164 9.59681C174.164 14.7544 179.276 14.8626 183.226 15.8582C184.331 16.118 186.29 16.4105 186.289 17.8852C186.289 19.3975 184.553 19.9128 183.335 19.9128C182.448 19.9128 181.684 19.6915 181.094 19.2488C180.467 18.7683 180.062 18.0666 180.062 17.1115H173.995C174.181 22.4557 178.832 23.9637 183.373 23.9637C187.692 23.9637 192.73 22.2685 192.73 17.1493C192.73 15.5651 191.735 12.7645 187.859 11.9888C184.978 11.3661 180.606 11.0352 180.606 9.2296C180.606 7.90155 182.268 7.79124 183.299 7.79124C184.076 7.79124 184.692 7.93928 185.21 8.27021C185.726 8.60258 186.023 9.11711 186.023 9.92773H191.9C191.68 4.95516 187.285 3.73886 183.076 3.73886Z" fill="#1E1E1E"/>
</svg>
