<svg width="120" height="36" viewBox="0 0 120 36" fill="none" xmlns="http://www.w3.org/2000/svg">
<path d="M31.7715 10.0352C31.9428 11.29 33.8449 12.9809 34.3599 12.9414C34.7043 12.9414 34.8355 11.3032 34.8355 10.0352C34.8355 9.30851 34.876 8.74028 34.4925 8.60818C33.8848 9.8372 32.2864 10.0882 31.7715 10.0352ZM31.8769 9.48015C33.25 9.48015 34.506 8.38412 34.506 7.4196C34.506 6.97029 34.2943 6.60095 33.7524 6.53505C33.8449 6.65397 33.8845 6.74653 33.8845 6.95711C33.8845 7.68409 32.7759 8.49016 31.5729 8.49016C31.1365 8.49016 31.005 8.7933 31.005 8.95176C31.0053 9.32169 31.3614 9.48015 31.8769 9.48015ZM31.5861 7.98783C31.4019 7.98783 31.1368 7.98783 30.9924 7.69727C30.8726 7.45944 30.9127 7.07632 30.6881 6.90439C30.9127 6.97029 31.1503 6.97029 31.3351 6.97029C31.93 6.97029 32.4982 6.56141 32.9334 6.56141C33.2243 6.56141 33.3159 6.74653 33.3159 6.93075C33.3159 7.51186 32.1417 7.98783 31.5861 7.98783ZM2.03806 18.3433C2.48648 18.3433 2.39332 15.5959 3.12031 15.5959C3.29254 15.5959 3.34526 15.7678 3.34526 15.9787C3.34526 16.5997 3.04123 17.5112 3.04123 18.0132C3.04123 18.2639 3.10743 18.3433 3.22605 18.3433C3.54356 18.3433 4.09801 15.3185 4.63988 15.3185C4.81152 15.3185 4.8906 15.4902 4.8906 15.6621C4.8906 16.2956 4.08483 18.1186 4.08483 18.6333C4.08483 18.7126 4.11149 18.7785 4.17709 18.7785C4.50779 18.7785 5.16858 17.3521 5.37975 16.6392C5.49837 16.2693 5.65683 16.0713 5.80181 16.0713C5.93391 16.0713 6.05282 16.2168 6.05282 16.5203C6.05282 17.2335 5.39293 18.9112 4.81122 20.0339C4.36191 20.9053 3.66218 22.1607 3.66218 22.861C3.66218 23.2175 3.72868 23.5871 4.24299 24.0364C3.39768 23.9837 3.05471 23.9046 2.73719 23.2441C1.32365 26.0568 5.33961 25.7806 3.96591 28.2767C3.7155 27.8277 1.73373 27.3652 1.73373 24.7502C1.73373 22.4908 3.7155 21.1701 3.7155 20.2322C3.7155 20.0474 3.649 19.8889 3.47766 19.744C3.04123 19.374 3.02835 19.07 2.68477 19.07C2.43406 19.07 2.13032 19.6514 2.44694 20.166C2.55268 20.3377 2.64553 20.4437 2.64553 20.6024C2.64553 20.9724 2.06472 21.9627 1.65495 21.9627C1.24547 21.9627 0.928259 20.946 0.928259 19.3081C0.928259 17.8547 1.25835 16.3891 1.66813 16.3891C1.78675 16.3891 1.82659 16.4682 1.82659 16.5739C1.82659 16.7455 1.77357 17.0882 1.77357 17.6699C1.77327 18.2903 1.91884 18.3433 2.03806 18.3433ZM22.2733 5.35845C22.4851 5.35845 22.5249 5.87426 22.5642 6.178C22.5905 6.33645 22.6169 6.34993 22.6834 6.34993C22.8419 6.34993 23.0929 5.74186 23.2639 5.74186C23.5161 5.74186 24.1895 6.44249 25.3116 6.44249C26.9099 6.44249 28.4163 5.31921 28.4163 3.33804C28.4163 1.42247 27.0684 0.299483 25.2061 0.299483C24.321 0.299483 23.674 0.735317 23.3304 0.735317C23.1192 0.748496 22.802 0.220703 22.643 0.220703C22.5768 0.220703 22.5115 0.352202 22.5115 0.576859C22.5115 0.722137 22.5115 1.18493 22.3524 1.18493C22.0358 1.18493 20.8074 0.272823 20.8074 0.603518C20.8074 0.907553 21.6263 1.83254 21.6263 2.06978C21.6263 2.30791 20.8208 2.53227 20.8208 2.69073C20.8208 2.98158 21.6796 3.0343 21.6796 3.40424C21.6796 3.77357 20.7804 4.06443 20.7804 4.3421C20.7804 4.56676 21.6796 4.408 21.6796 4.68568C21.6796 4.96305 21.0191 5.88714 21.0191 6.15164C21.0191 6.21813 21.032 6.21813 21.0853 6.21813C21.3355 6.21784 22.0891 5.35845 22.2733 5.35845ZM5.32673 24.882C5.31326 24.6178 5.49837 24.3665 5.77545 24.3401C6.05282 24.3003 6.30414 24.5118 6.3302 24.7891C6.35716 25.0668 6.15856 25.305 5.88089 25.3442C5.60411 25.358 5.35339 25.1594 5.32673 24.882ZM3.86078 25.2915C3.9138 25.7408 4.33585 26.0832 4.81152 26.0307C4.98316 26.0173 5.14222 25.9645 5.24736 25.8981C5.35339 26.3213 5.68289 26.5855 6.17174 26.5325C6.66059 26.4932 7.00447 26.0832 6.95145 25.5955C6.95145 25.4637 6.91191 25.3843 6.87237 25.2915L6.96493 25.2783C7.42682 25.2256 7.78328 24.8026 7.74344 24.3401C7.69102 23.8642 7.25549 23.5209 6.80617 23.5604C6.63424 23.6003 6.48896 23.6527 6.38352 23.7452C6.2643 23.3495 5.92073 23.0323 5.43247 23.0854C4.96998 23.1117 4.61293 23.5604 4.66595 24.049C4.66595 24.1155 4.692 24.2212 4.73214 24.3135L4.63959 24.3264C4.17709 24.3926 3.82094 24.7763 3.86078 25.2915ZM33.2902 1.06601C33.2897 1.10952 33.2978 1.15269 33.3142 1.19299C33.3306 1.23329 33.3549 1.26991 33.3857 1.30069C33.4164 1.33147 33.453 1.3558 33.4933 1.37223C33.5336 1.38867 33.5768 1.39689 33.6203 1.39641C33.8051 1.39641 33.951 1.25143 33.951 1.06601C33.951 0.880894 33.8054 0.735317 33.6203 0.735317C33.4349 0.735317 33.2902 0.880894 33.2902 1.06601ZM25.92 13.5881C25.92 13.8921 26.171 14.1431 26.4741 14.1431C26.621 14.1423 26.7617 14.0835 26.8655 13.9796C26.9694 13.8757 27.0281 13.735 27.0289 13.5881C27.0278 13.4413 26.9691 13.3007 26.8652 13.1969C26.7614 13.0931 26.6209 13.0343 26.4741 13.0333C26.171 13.0333 25.92 13.2849 25.92 13.5881ZM25.9592 15.252C25.9591 15.3335 25.9751 15.4143 26.0062 15.4896C26.0373 15.5649 26.083 15.6334 26.1406 15.6911C26.1981 15.7488 26.2665 15.7945 26.3418 15.8258C26.4171 15.8571 26.4977 15.8732 26.5792 15.8733C26.6608 15.8734 26.7415 15.8574 26.8168 15.8263C26.8921 15.7951 26.9606 15.7495 27.0183 15.6919C27.076 15.6343 27.1218 15.566 27.153 15.4907C27.1843 15.4154 27.2004 15.3347 27.2005 15.2532C27.2007 15.0886 27.1354 14.9307 27.0191 14.8142C26.9029 14.6977 26.7451 14.6321 26.5804 14.632C26.4158 14.6318 26.2579 14.6971 26.1414 14.8133C26.0249 14.9296 25.9594 15.0874 25.9592 15.252ZM24.0571 16.375C24.0575 16.6166 24.1537 16.8482 24.3245 17.0191C24.4954 17.19 24.727 17.2861 24.9686 17.2865C25.2101 17.2858 25.4415 17.1895 25.6121 17.0187C25.7828 16.8479 25.879 16.6165 25.8795 16.375C25.879 16.1336 25.7828 15.9022 25.6121 15.7315C25.4414 15.5608 25.21 15.4647 24.9686 15.4641C24.727 15.4643 24.4954 15.5604 24.3246 15.7311C24.1537 15.9019 24.0575 16.1334 24.0571 16.375ZM24.5457 14.5131C24.5457 14.8042 24.7832 15.0417 25.074 15.0417C25.3649 15.0417 25.603 14.8042 25.603 14.5131C25.603 14.2225 25.3649 13.9847 25.074 13.9847C24.7832 13.9847 24.5457 14.2225 24.5457 14.5131ZM22.8146 15.5695C22.8146 15.7098 22.8703 15.8442 22.9695 15.9434C23.0686 16.0425 23.2031 16.0982 23.3433 16.0982C23.4835 16.0982 23.618 16.0425 23.7171 15.9434C23.8163 15.8442 23.872 15.7098 23.872 15.5695C23.8674 15.4324 23.8096 15.3024 23.711 15.207C23.6124 15.1117 23.4805 15.0583 23.3433 15.0583C23.2061 15.0583 23.0742 15.1117 22.9756 15.207C22.8769 15.3024 22.8192 15.4324 22.8146 15.5695ZM24.176 12.4789C24.1774 12.7026 24.2669 12.9169 24.4251 13.0751C24.5834 13.2334 24.7975 13.323 25.0213 13.3245C25.2451 13.3229 25.4592 13.2333 25.6174 13.075C25.7756 12.9168 25.8651 12.7026 25.8666 12.4789C25.8652 12.2551 25.7757 12.0409 25.6175 11.8827C25.4593 11.7245 25.2451 11.635 25.0213 11.6336C24.7976 11.635 24.5834 11.7245 24.4252 11.8827C24.2669 12.0409 24.1774 12.2551 24.176 12.4789ZM25.1669 10.8538C25.1652 10.9208 25.1769 10.9874 25.2014 11.0497C25.2258 11.1121 25.2624 11.1689 25.3092 11.2169C25.3559 11.2648 25.4117 11.303 25.4734 11.329C25.5351 11.3551 25.6014 11.3685 25.6683 11.3686C25.7353 11.3686 25.8016 11.3553 25.8633 11.3294C25.925 11.3034 25.981 11.2654 26.0278 11.2175C26.0746 11.1696 26.1113 11.1129 26.1359 11.0506C26.1604 10.9883 26.1722 10.9217 26.1707 10.8547C26.1676 10.7238 26.1134 10.5992 26.0197 10.5076C25.926 10.416 25.8003 10.3646 25.6692 10.3645C25.5382 10.3644 25.4123 10.4155 25.3185 10.5069C25.2246 10.5984 25.1702 10.7229 25.1669 10.8538ZM22.7754 12.1218C22.7754 12.255 22.8283 12.3828 22.9225 12.477C23.0167 12.5712 23.1445 12.6241 23.2777 12.6241C23.4109 12.6241 23.5387 12.5712 23.6329 12.477C23.7271 12.3828 23.78 12.255 23.78 12.1218C23.78 11.8441 23.5554 11.6204 23.2774 11.6204C23 11.6204 22.7754 11.8441 22.7754 12.1218ZM22.7092 13.8391C22.7092 14.2884 23.0659 14.6455 23.5158 14.6455C23.6218 14.646 23.7269 14.6255 23.8249 14.5852C23.9229 14.5448 24.0119 14.4854 24.0868 14.4104C24.1617 14.3354 24.221 14.2463 24.2612 14.1482C24.3014 14.0502 24.3217 13.9451 24.321 13.8391C24.3217 13.7331 24.3013 13.6281 24.2611 13.5301C24.2209 13.432 24.1616 13.343 24.0867 13.268C24.0118 13.1931 23.9228 13.1337 23.8248 13.0934C23.7268 13.0532 23.6218 13.0327 23.5158 13.0333C23.4098 13.0326 23.3046 13.0529 23.2065 13.0932C23.1084 13.1334 23.0192 13.1927 22.9442 13.2677C22.8691 13.3426 22.8097 13.4317 22.7694 13.5298C22.729 13.6279 22.7086 13.733 22.7092 13.8391ZM21.0455 14.685C21.0455 15.0948 21.3888 15.4377 21.7986 15.4377C22.2074 15.4377 22.551 15.0948 22.551 14.685C22.551 14.2755 22.2077 13.9319 21.7986 13.9319C21.3888 13.9319 21.0455 14.2755 21.0455 14.685ZM21.4942 12.8224C21.4942 13.113 21.7324 13.3511 22.0232 13.3511C22.1632 13.3505 22.2972 13.2946 22.396 13.1955C22.4949 13.0965 22.5506 12.9624 22.551 12.8224C22.551 12.5316 22.3135 12.2937 22.0232 12.2937C21.8831 12.2941 21.7487 12.3499 21.6496 12.4489C21.5505 12.548 21.4946 12.6823 21.4942 12.8224ZM19.7377 32.2933C19.7377 32.5826 19.9752 32.8202 20.2661 32.8202C20.5558 32.8202 20.7939 32.5826 20.7939 32.2933C20.7937 32.1532 20.738 32.019 20.6391 31.9198C20.5402 31.8206 20.4061 31.7646 20.2661 31.764C19.9752 31.764 19.7377 32.0015 19.7377 32.2933ZM5.52533 10.4045C5.52533 10.6954 5.76257 10.9332 6.05282 10.9332C6.19297 10.9329 6.32729 10.8771 6.42642 10.778C6.52555 10.679 6.58142 10.5447 6.58182 10.4045C6.58118 10.2645 6.52521 10.1305 6.42611 10.0316C6.327 9.93273 6.19282 9.87706 6.05282 9.87674C5.76257 9.87674 5.52533 10.1146 5.52533 10.4045ZM4.83788 9.21595C4.83828 9.3561 4.89415 9.49039 4.99327 9.58946C5.0924 9.68853 5.22673 9.74433 5.36687 9.74465C5.65683 9.74465 5.89407 9.50681 5.89407 9.21595C5.89407 8.9254 5.65683 8.68726 5.36687 8.68726C5.22673 8.68758 5.0924 8.74337 4.99327 8.84244C4.89415 8.94151 4.83828 9.0758 4.83788 9.21595ZM5.40611 22.2134C5.96057 22.2134 6.42336 21.8036 6.42336 20.8927V19.5457C6.42336 19.0301 6.4623 18.4484 6.80617 18.0396C6.76663 18.2115 6.76663 18.3963 6.76663 18.5674C6.76663 19.7038 7.40046 20.4832 7.40046 21.5802C7.40046 21.989 7.28185 22.2137 6.96493 22.2137C6.6606 22.2137 6.68726 21.9363 6.62136 21.9363C6.56864 21.9363 6.48926 22.1079 6.48926 22.2925C6.48926 22.5704 6.68755 23.0063 7.24261 23.0063C7.71768 23.0063 8.10079 22.5704 8.10079 22.0813C8.10079 20.893 7.17701 19.5723 7.17701 18.3041C7.17701 17.749 7.32108 17.3794 7.4403 17.0882C7.4403 19.7176 9.67279 21.6332 9.67279 22.7292C9.67279 22.9802 9.48797 23.1785 9.2103 23.1785C8.90716 23.1785 8.76158 22.9407 8.76158 22.7556C8.76158 22.6627 8.7484 22.6366 8.70886 22.6366C8.62949 22.6366 8.39135 22.9008 8.39135 23.2444C8.39135 23.6796 8.7481 24.2083 9.40859 24.2083C10.1616 24.2083 10.5717 23.5742 10.5717 23.0063C10.5717 21.6197 7.86326 19.5187 7.86326 17.2733C7.86326 16.8899 7.92916 16.2696 8.20683 15.7942C6.4626 16.9163 5.92133 18.4098 5.92133 19.7173C5.92133 20.8529 5.88149 21.4211 5.30068 21.4211C4.99694 21.4211 4.91786 21.1437 4.81212 21.1437C4.73274 21.1437 4.6929 21.3819 4.6929 21.4478C4.69201 21.936 5.04906 22.2134 5.40611 22.2134ZM28.2974 9.01795C28.8782 9.01795 29.3147 8.75346 29.3147 8.595C29.3147 8.54198 29.235 8.50334 29.063 8.50334C28.8917 8.50334 28.5475 8.49016 27.9005 8.38412C27.3452 8.29187 26.9222 8.08069 26.7638 8.08069C26.7104 8.08069 26.6847 8.10675 26.6847 8.14629C26.6853 8.48986 27.3194 9.01795 28.2974 9.01795ZM25.4179 7.34022C25.5893 7.23448 26.3282 7.40612 27.2937 6.93045C27.3982 6.87148 27.516 6.83985 27.636 6.83849C28.0994 6.83849 27.9799 7.36658 28.4035 7.36658C28.7336 7.36658 29.1565 7.0892 29.4075 7.0892C29.8023 7.0892 30.3712 8.3311 30.3712 8.91222C30.3712 9.58559 29.3548 9.99536 28.1521 9.99536C26.3947 9.99536 25.3385 8.4629 25.3385 7.47202C25.3385 7.39294 25.3781 7.36658 25.4179 7.34022ZM5.68259 27.1933C5.24706 27.2993 4.54703 27.9862 4.54703 29.0702C4.54703 30.3633 5.93391 32.3589 8.21941 32.3589C10.1482 32.3589 10.6229 31.0241 10.6229 30.1255C10.6229 28.1317 9.39452 26.7308 7.79646 26.7308C6.92449 26.7308 6.14508 27.3652 6.14508 28.3031C6.14508 29.1753 6.80557 30.4825 8.37757 30.4825C9.11684 30.4825 9.55297 29.9536 9.55297 29.3458C9.55297 28.7527 9.0108 27.9331 8.21881 27.9331C7.98068 27.9331 7.80904 28.0916 7.80904 28.3429C7.80904 28.6598 8.24547 28.977 8.78705 28.977C8.91914 28.977 9.02398 28.9507 9.0773 28.924C9.10366 28.9639 9.11684 29.0301 9.11684 29.0828C9.11684 29.3856 8.82688 29.5704 8.37757 29.5704C7.7036 29.5704 7.05659 29.0696 7.05659 28.2764C7.05659 27.8007 7.46547 27.4569 8.06066 27.4569C9.23546 27.4569 9.93609 28.5014 9.93609 29.5438C9.93609 30.4825 9.42058 31.0238 8.36439 31.0238C6.25112 31.0241 5.221 29.1223 5.68259 27.1933ZM4.36221 12.8356C4.05817 12.915 3.42464 13.2849 3.42464 13.9448C3.42464 14.4208 3.79428 14.7248 4.25647 14.7248C4.49431 14.7248 4.66624 14.6715 4.77168 14.5924C4.40175 14.236 4.26965 13.8394 4.26965 13.4437C4.26965 13.166 4.30919 12.9941 4.36221 12.8356ZM1.12596 13.0204C1.11278 13.0863 1.11278 13.1525 1.11278 13.2184C1.11278 13.8391 1.44317 14.1827 1.8796 14.1827C2.2094 14.1827 2.59251 13.9844 2.93579 13.5482C2.77876 13.575 2.61972 13.5883 2.46042 13.5878C1.97126 13.5881 1.44317 13.4566 1.12596 13.0204ZM0.664062 14.1961C0.664062 15.1999 0.966899 15.6753 1.50937 15.6753C1.93202 15.6753 2.49996 15.3715 3.17393 14.7907C2.65841 14.9096 2.26272 14.9887 1.90596 14.9887C1.42999 14.9887 1.05976 14.8039 0.664062 14.1961ZM20.7675 34.9343C21.4017 34.9343 21.3618 34.8813 21.5607 34.8813C21.759 34.8813 21.7713 35.0002 21.7713 35.0793C21.7713 35.3705 21.1237 35.7266 19.9752 35.7266C19.3007 35.7266 18.8918 35.3705 18.7735 34.9739C18.1121 35.3965 17.1089 35.7796 16.1189 35.7796C13.4108 35.7796 12.7233 34.6036 11.8783 34.2202C11.231 33.9297 10.2404 34.4976 8.85384 32.952C9.03806 32.9915 9.28908 33.0047 9.48767 33.0047C10.7029 33.0047 11.3502 32.4113 11.3502 31.4602C11.3502 31.3413 11.337 31.2086 11.3239 31.0903C11.6941 31.2353 12.5391 31.87 12.7368 32.9918C12.7635 33.1239 13.305 33.2428 13.6489 33.2428C14.124 33.2428 14.7318 33.0445 14.8243 32.266C16.4095 32.1345 17.4786 31.1958 17.7032 30.0066C18.2714 30.1917 18.9179 30.7069 19.0769 30.9714C19.301 30.8917 19.5655 30.8525 19.8695 30.8525C20.2925 30.8525 20.7675 30.9319 21.3358 31.1038C21.3621 30.9319 21.3891 30.7204 21.6536 30.7204C22.0496 30.7204 21.9438 31.1565 22.0759 31.4075C22.1421 31.5396 22.4719 31.6187 22.4719 31.8835C22.4719 32.1348 22.2601 32.2268 22.129 32.2268C22.0756 32.2268 22.0097 32.2139 21.9699 32.2007C21.706 32.2936 21.6925 34.1945 20.5827 34.1945C19.7638 34.1945 19.0107 33.5208 18.6815 32.6752C18.5887 32.4248 18.3904 32.2663 18.2052 32.2663C17.9935 32.2663 17.8752 32.3068 17.6241 32.5829C16.9115 33.3623 15.7229 34.036 14.2567 34.036C13.8077 34.036 13.4512 33.9968 13.3581 33.9968C13.3053 33.9968 13.3053 34.01 13.3053 34.0231C13.3053 34.1157 13.7547 34.4721 14.7321 34.4721C17.0565 34.4721 17.6241 33.164 17.9938 33.164C18.0474 33.164 18.2055 33.164 18.2981 33.3755C18.8397 34.6441 20.0154 34.9349 20.755 34.9349L20.7675 34.9343ZM13.2652 8.38412C14.1363 8.38412 14.5332 9.13687 14.5332 9.98248C14.5332 10.3521 14.4277 10.8937 14.2561 10.8937C14.0841 10.8937 14.1105 10.5897 14.0841 10.312C14.0578 9.95612 13.9916 9.87674 13.8736 9.87674C13.6489 9.87674 13.5036 10.4045 13.5036 10.8937C13.5036 11.1977 13.5558 11.541 13.7939 11.541C13.9254 11.541 14.0446 11.4748 14.124 11.396C14.071 12.0032 13.6223 12.5316 12.9881 12.5316C11.8253 12.5316 11.3895 11.1711 11.2574 10.3785C10.5582 11.1183 9.91033 11.6599 8.7478 11.6599C7.66466 11.6599 7.17641 10.8673 7.17641 10.1146C7.17641 9.88962 7.25549 9.30851 7.53196 9.30851C7.86266 9.30851 7.5715 10.3917 8.21941 10.3917C8.37787 10.3917 8.66843 10.2596 8.82718 9.82402C8.91974 9.55983 8.97186 9.28215 8.97186 9.04402C8.97186 8.68726 8.89308 8.4632 8.62859 8.4632C8.40363 8.4632 8.12626 8.63484 8.034 8.7268C8.35121 7.77605 9.11684 7.2872 9.96245 7.2872C11.0061 7.2872 11.5611 8.21219 11.5611 9.24231C11.5609 9.39286 11.5476 9.5431 11.5213 9.69133C11.9715 8.95146 12.5918 8.38412 13.2652 8.38412ZM9.94987 0.510959C9.94987 0.431581 9.55387 0.352202 9.0117 0.352202C8.15351 0.352202 8.27273 1.06601 7.61224 1.06601C6.92539 1.06601 7.09703 0.326142 6.22536 0.326142C5.69637 0.326142 5.20842 0.418701 5.20842 0.537619C5.20842 0.696077 5.82877 0.630177 5.82877 1.06631C5.82877 1.5288 4.49491 1.6612 4.49491 1.93768C4.49491 2.03024 4.60065 2.06978 4.73274 2.06978C5.0233 2.06978 5.48609 1.93768 5.81529 1.93768C6.0007 1.93768 6.17234 1.97782 6.17234 2.14946C6.17234 2.47985 5.45973 3.07414 5.45973 3.33864C5.45973 3.41832 5.52593 3.44467 5.59183 3.44467C5.85543 3.44467 6.30504 2.77041 6.72769 2.77041C7.42772 2.77041 6.96583 4.26332 7.34804 4.26332C7.74434 4.26332 7.5727 2.79706 8.14093 2.79706C8.60343 2.79706 8.9473 3.81401 9.26392 3.81401C9.34269 3.81401 9.40889 3.74811 9.40889 3.65525C9.40889 3.37848 9.0123 2.81024 9.0123 2.44001C9.0123 2.21535 9.17106 2.10962 9.38253 2.10962C9.68657 2.10962 10.0963 2.29473 10.3207 2.29473C10.4001 2.29473 10.4792 2.26837 10.4792 2.17581C10.4792 1.8586 9.30316 1.51562 9.30316 1.10585C9.30256 0.695777 9.94987 0.695777 9.94987 0.510959ZM28.7731 26.5196C28.4951 26.5196 26.9624 28.5676 25.9724 28.5676C25.7348 28.5676 25.5365 28.1183 25.5365 27.775C25.5365 27.5899 25.6552 27.4572 26.079 27.3655C28.3501 26.85 27.8475 25.1465 29.7888 25.1465C30.8594 25.1465 32.0489 25.8738 32.0489 27.5111C32.0489 29.2538 29.566 31.4213 29.1957 31.4213C28.892 31.4213 28.5616 30.9849 28.5616 30.6943C28.5616 30.6018 28.6015 30.4831 28.866 30.3771C30.133 29.8745 30.8597 28.7131 30.8597 28.1186C30.8597 27.9868 30.7941 27.8544 30.6222 27.8544C30.3969 27.8544 29.4339 30.0464 28.3639 30.0464C27.6231 30.0464 26.8704 29.3727 26.8704 29.0567C26.8704 28.528 29.0106 27.55 29.0106 26.8099C29.01 26.5325 28.8785 26.5196 28.7731 26.5196ZM30.1989 25.701C30.0135 25.701 29.8152 25.8468 29.8152 26.2021C29.8152 26.5987 30.1201 26.8497 30.2915 26.9288C30.4085 26.995 30.5401 27.0313 30.6746 27.0345C31.0577 27.0345 31.3614 26.9288 31.3614 26.6116C31.3614 26.2021 30.7671 25.701 30.1989 25.701ZM13.0537 1.8583C13.0537 2.09614 13.8865 2.61165 14.269 2.61165C14.4936 2.61165 14.5598 2.30761 14.5598 1.9901C14.5598 1.5947 14.3876 1.58092 14.0443 1.58092C13.6094 1.58092 13.0537 1.70014 13.0537 1.8583ZM14.428 4.4739C14.428 3.68101 12.2623 2.21476 12.2623 1.62106C12.2623 1.5947 12.2623 1.58122 12.2749 1.55486C12.4337 1.11873 14.2297 0.814695 14.2297 0.45794C14.2297 0.286003 13.9131 0.286003 13.7547 0.286003C12.5256 0.286003 10.7296 0.735317 10.7296 1.17175C10.7296 1.62106 12.3411 2.71739 12.3411 3.25926C12.3411 3.40424 12.2492 3.45756 12.1039 3.45756C11.6549 3.45756 10.6766 2.91568 10.2147 2.91568C10.0032 2.91568 9.92441 3.06066 9.92441 3.27214C9.92441 3.90567 10.6766 5.10833 10.6766 5.46449C10.6766 5.50403 10.6634 5.55705 10.6113 5.55705C10.3734 5.55705 9.25044 4.23636 8.85444 4.23636C8.70916 4.23636 8.69568 4.43466 8.69568 4.72492V5.17423C8.69568 5.47767 8.6825 5.66248 8.53723 5.66248C8.19365 5.66248 8.03489 4.69856 7.7048 4.69856C7.36092 4.69856 7.29592 6.41613 6.96553 6.41613C6.58242 6.41613 6.91221 4.52662 6.54198 4.52662C6.1328 4.52662 5.67001 5.7817 5.38035 5.7817C5.27431 5.7817 5.24796 5.67596 5.24796 5.58311C5.24796 5.20089 5.47291 4.57964 5.47291 4.20971C5.47291 4.02459 5.41989 3.91915 5.26114 3.91915C4.85166 3.91915 3.95393 4.57994 3.61006 4.57994C3.55734 4.57994 3.49144 4.55358 3.49144 4.50026C3.49144 4.18305 4.93134 3.17958 4.93134 2.73027C4.93134 2.29413 2.94957 2.58469 2.94957 2.08266C2.94957 1.6606 4.36281 1.22417 4.36281 0.788036C4.36281 0.405221 2.68507 0.233883 2.03866 0.233883C1.25865 0.233883 0.835999 0.325842 0.835999 0.550499C0.835999 0.893774 2.60599 0.999812 2.60599 1.30355C2.60599 1.5947 0.769801 2.37351 0.769801 2.82283C0.769801 3.21882 3.35904 2.84859 3.35904 3.25896C3.35904 3.70737 1.0999 5.649 1.0999 6.29691C1.0999 6.44249 1.20593 6.50839 1.35061 6.50839C2.03836 6.50839 3.82124 5.20089 4.30949 5.20089C4.48113 5.20089 4.49461 5.41147 4.49461 5.59629C4.49461 5.94016 4.37599 6.46825 4.37599 6.85167C4.37599 7.1551 4.45477 7.36628 4.71956 7.36628C5.20812 7.36628 5.65713 6.53445 5.98723 6.53445C6.41048 6.53445 6.15886 8.97752 6.79359 8.97752C7.33426 8.97752 7.55892 6.33615 7.9028 6.33615C8.24667 6.33615 8.52405 7.10178 8.84096 7.10178C9.23666 7.10178 9.05184 5.76762 9.47479 5.76762C9.93699 5.76762 11.2577 7.3528 11.8523 7.3528C12.0374 7.3528 12.1036 7.20722 12.1036 7.02241C12.1036 6.32297 11.1262 4.7378 11.1262 4.23547C11.1262 4.10307 11.1654 4.06353 11.311 4.06353C11.8259 4.06353 13.332 4.77734 14.0449 4.77734C14.2821 4.77794 14.428 4.64584 14.428 4.4739ZM32.459 19.6775C32.6701 19.0167 32.9334 18.5536 33.3687 17.841C32.9334 17.6166 31.785 17.1409 31.785 16.3618C31.785 15.4506 32.9217 14.738 33.1575 14.738C33.2635 14.738 33.2902 14.8306 33.2902 15.0022C33.2902 15.4773 33.0649 16.2432 33.0649 16.6524C33.0649 17.0217 33.3031 17.3788 33.5136 17.3788C33.7389 17.3788 34.3596 16.5862 34.3596 15.8074C34.3596 14.4073 33.1308 13.9847 32.7495 13.9847C32.3922 13.9847 31.7445 14.5658 30.2244 14.5658C27.3847 14.5658 26.738 11.7519 26.738 10.5235C26.738 10.4707 26.7503 10.4576 26.7638 10.4576C26.8306 10.4576 27.1076 10.8008 28.0057 10.8008C28.4685 10.8008 28.8914 10.6822 29.5654 10.6822C31.1497 10.6822 31.8506 11.7791 32.8283 13.1792C33.4214 13.5485 34.8349 14.1431 34.8349 15.8206C34.8349 17.2994 33.2629 18.1186 32.881 19.7035C33.4876 19.6379 33.8446 18.5539 34.4659 18.5539C34.7831 18.5539 34.9281 18.8055 34.9281 19.2015C34.9281 19.7835 34.598 20.6546 33.9633 21.1964C33.9767 21.1434 33.9767 21.0772 33.9767 20.9984C33.9767 20.6282 33.8312 20.0998 33.4082 20.0998C32.7495 20.0998 32.5377 20.813 32.1672 21.4076C31.7847 20.0603 31.2686 18.8447 30.3442 18.1055C29.4069 17.3521 27.7945 17.7619 27.7945 16.3885C27.7945 16.0183 28.032 15.4902 28.032 15.0681C28.032 14.9231 28.0057 14.7907 27.9266 14.685C29.1948 15.1598 28.7455 16.0051 29.5255 16.8764C30.0129 17.4315 31.3608 17.9599 32.1411 20.2448C32.1534 20.1792 32.1669 20.0076 32.1669 19.8889C32.1669 17.9341 29.5786 16.0186 29.3539 15.2266C30.8585 15.3982 31.123 15.7681 31.8368 17.7487C31.9827 18.1585 32.459 19.1751 32.459 19.6775ZM4.08483 8.91222C4.16249 8.66418 4.20248 8.40589 4.20345 8.14599C4.20345 7.51156 3.9135 6.54793 3.01457 6.54793C2.49936 6.54793 2.13002 6.95681 2.13002 7.44566C2.13032 8.48986 3.17363 8.91222 4.08483 8.91222ZM2.96185 12.241C2.52602 12.241 2.05094 11.6998 2.05094 11.2112C2.05094 10.9467 2.24954 10.616 2.39332 10.616C2.44664 10.616 2.473 10.6556 2.48648 10.7481C2.56556 11.396 2.98851 11.7657 3.3851 11.9499C3.42464 11.9765 3.4513 11.99 3.4513 12.0161C3.4513 12.1086 3.19969 12.241 2.96185 12.241ZM4.52097 10.9994C4.52097 11.1842 4.41493 11.4224 4.20345 11.4224C3.74186 11.4224 3.37162 10.7218 3.37162 10.3255C3.37162 10.075 3.5169 10.0484 3.7152 10.0484C3.80746 10.0484 3.8467 10.0616 3.9135 10.1011C4.03181 10.1673 4.03181 10.4312 4.17679 10.6292C4.25647 10.7613 4.52097 10.9069 4.52097 10.9994ZM4.05817 9.61225C3.97969 9.59907 3.87366 9.59907 3.76792 9.59907C3.33208 9.59907 2.75037 9.67845 2.23606 10.022C1.07294 10.7751 1.25775 11.9631 1.07294 12.2674C1.04596 12.3112 1.03223 12.3618 1.0334 12.4133C1.0334 12.5319 1.1655 12.6637 1.28411 12.6637C1.39045 12.6637 1.45635 12.6379 1.50907 12.6379C1.82629 12.6379 2.18274 12.8626 2.69795 12.8626C3.00169 12.8626 3.35844 12.7697 3.80776 12.5451C4.7588 12.0697 5.12904 10.894 5.12904 10.6957C5.12904 10.4447 4.93074 10.4842 4.7591 10.2464C4.57398 9.9696 4.66624 9.86416 4.54763 9.7051C4.46765 9.63891 4.29631 9.63891 4.05817 9.61225ZM5.45913 11.7393C5.16858 12.082 4.86424 12.6634 4.86424 13.2586C4.86424 13.9712 5.30008 14.5658 5.97375 14.5658C6.62136 14.5658 6.92509 14.0107 6.92509 13.4434C6.92509 12.5579 6.11872 11.937 5.45913 11.7393ZM2.63175 9.20277C2.63175 9.20277 2.24954 9.49333 1.77327 9.49333C1.20534 9.49333 0.756021 9.07038 0.756021 8.47638C0.756021 8.06691 0.9669 7.64426 1.45635 7.43278C1.44317 7.51216 1.44317 7.57806 1.44317 7.65743C1.44317 8.41048 1.86613 8.97782 2.63175 9.20277ZM26.1311 16.8896C26.1311 16.626 26.3681 16.4011 26.6326 16.4011C26.9228 16.4011 27.1481 16.626 27.1481 16.8896C27.1481 17.1934 26.9228 17.4048 26.6326 17.4048C26.3681 17.4048 26.1311 17.1934 26.1311 16.8896ZM26.4741 32.0815C26.5403 32.0815 26.6191 32.121 26.6191 32.3589C26.6191 32.6485 26.487 33.0313 26.0131 33.3357C25.6821 33.5603 25.2331 33.7449 24.572 33.7583C24.6775 33.4411 24.7568 33.1113 24.7568 32.7938C24.7568 32.6881 24.7434 32.6084 24.7305 32.4913H24.9018C25.9463 32.4913 26.3944 32.0815 26.4741 32.0815ZM26.5792 30.7731C26.6853 30.6805 26.7107 30.5356 26.7107 30.39V30.086C26.7107 29.7028 26.1308 29.4779 25.3382 29.4779C24.374 29.4779 23.8582 29.914 23.8582 30.0991V30.7069C23.8582 30.9582 24.4396 31.2089 25.1534 31.2089C25.7217 31.2089 26.2372 31.064 26.5792 30.7731ZM27.2667 30.9187C26.9228 31.1826 26.1177 31.7775 24.7832 31.7775C24.07 31.7775 23.7534 31.5528 23.6476 31.5528C23.5161 31.5528 23.3703 31.6846 23.2247 31.8565C22.9075 32.2265 22.498 32.9124 22.498 33.6652C22.498 34.1945 22.9075 34.7229 23.674 34.7229C26.1446 34.7229 27.9934 33.1766 27.9934 31.9227C27.9934 31.2089 27.5704 30.9187 27.2667 30.9187ZM27.7283 19.8096C27.7283 20.1394 27.8346 20.5222 28.1653 20.5222C28.4427 20.5222 28.6808 20.0995 28.6808 19.6376C28.6808 19.1089 28.5877 18.6995 28.5877 18.4877C28.5877 18.396 28.6275 18.3562 28.6808 18.3562C28.8785 18.3694 29.0634 18.9112 29.2751 18.9112C29.5133 18.9112 29.8688 18.4751 30.0135 18.4751C30.0533 18.4751 30.0668 18.5278 30.0668 18.541C30.0668 18.7393 29.7625 19.1751 29.7625 19.3471C29.7625 19.4923 30.5296 19.5187 30.5296 19.6511C30.5296 19.8494 29.7235 19.8494 29.3413 20.0207C28.9717 20.1789 28.7464 20.3769 28.7464 20.6411C28.7464 20.9053 29.0103 20.9583 29.3806 20.9583C30.2651 20.9583 30.8864 20.4826 31.0844 20.4826C31.1242 20.4826 31.1506 20.5087 31.1506 20.5485C31.1506 20.6809 30.7012 21.1171 30.7012 21.3154C30.7012 21.54 31.5208 21.8033 31.5073 21.9357C31.4944 21.9749 31.4417 21.9881 31.3489 21.9881C31.2039 21.9881 30.9792 21.9489 30.807 21.9489C30.7009 21.9489 30.6087 21.9615 30.5694 22.0145C30.4763 22.1205 30.5958 22.8206 30.4104 22.8206C30.2391 22.8206 29.7891 21.2617 28.7734 21.2617C28.6278 21.2617 28.5218 21.3807 28.5218 21.579C28.5218 22.107 29.0379 22.7145 29.5264 23.0054C29.7499 23.1513 30.1201 23.2962 30.1201 23.3756C30.1201 23.5332 29.2754 23.3885 29.2754 23.6521C29.2754 23.8902 29.3809 24.247 29.3809 24.4585C29.3809 24.5244 29.3686 24.6034 29.2883 24.6034C29.1304 24.6034 28.7464 23.877 28.5616 23.877C28.4038 23.877 28.0596 24.3129 27.9146 24.3129C27.8748 24.3129 27.8478 24.2733 27.8478 24.2335C27.8478 23.9295 28.337 23.2432 28.337 22.5692C28.337 22.252 28.2977 21.5655 27.9146 21.5655C27.5968 21.5655 27.2406 22.0666 27.0816 22.5692C26.989 22.8601 27.0558 23.9825 26.844 23.9825C26.6463 23.9825 26.6985 23.2297 26.4346 23.2297C26.2375 23.2297 25.8151 23.5859 25.6692 23.5859C25.6429 23.5859 25.6165 23.5727 25.6165 23.5463C25.6165 23.3882 25.999 22.873 25.999 22.7675C25.999 22.5692 25.1268 22.5429 25.1268 22.3841C25.1268 22.2913 25.47 22.2257 25.7879 22.1726C26.4612 22.0537 27.4518 21.5655 27.4518 20.8783C27.4518 20.1118 26.711 19.7823 26.2243 19.4651C25.9727 19.3063 25.6953 19.1739 25.6953 19.0685C25.6953 18.9625 26.0131 18.9625 26.1446 18.9625C26.3411 18.9625 26.54 18.9496 26.54 18.7908C26.54 18.6719 26.5124 18.435 26.5124 18.2501C26.5124 18.1177 26.5259 18.0123 26.5792 18.0123C26.7775 18.0123 27.0555 18.659 27.1876 18.659C27.3982 18.659 27.6896 18.1312 27.8879 18.1312C27.9535 18.1312 27.9799 18.1708 27.9799 18.2894C27.9799 18.7785 27.7283 19.3336 27.7283 19.8096ZM21.428 15.9398C21.5736 17.0619 23.0797 16.4936 23.0797 17.8541C23.0797 18.0524 23.0264 18.3433 23.0264 18.5937C23.0264 18.8846 23.0527 19.1356 23.2774 19.1356C23.5021 19.1356 23.5554 18.9771 23.5554 18.7654C23.5554 18.5536 23.5021 18.2903 23.5021 18.145C23.5021 17.6825 23.8327 17.5768 24.0304 17.5768C24.5325 17.5768 24.9156 18.0923 25.6692 18.0923C25.4973 18.9373 23.7537 18.7126 23.7537 19.6379C23.7537 20.0998 24.2153 20.2059 24.5196 20.2059C24.797 20.2059 24.8892 20.1657 24.8892 19.9288C24.8892 19.7964 24.8629 19.6514 24.8629 19.5585C24.8629 19.5058 24.9021 19.4534 24.9689 19.4534C25.2598 19.4534 26.6853 20.5359 26.6853 20.8666C26.6853 21.1704 25.1801 21.4741 24.7437 21.4741C24.6125 21.4741 24.5858 21.3819 24.5858 21.3291C24.5858 21.2363 24.8104 20.9589 24.8104 20.8001C24.8104 20.6815 24.6128 20.6021 24.0838 20.6021C23.8327 20.6021 23.6479 20.6285 23.6479 20.8268C23.6479 21.1833 24.2284 21.6194 24.2284 21.9495C24.2284 22.2134 24.0706 22.3718 23.6479 22.3718C23.2912 22.3718 22.7493 22.0945 22.7493 21.6329C22.7493 21.2626 23.133 20.8927 23.133 20.6683C23.133 20.6021 23.0797 20.4964 22.9212 20.4964C22.4321 20.4964 22.3006 21.7907 20.5692 21.9363C20.8472 21.6856 21.0853 21.4079 21.0853 20.84C21.0853 20.5623 21.0191 20.3374 21.0191 20.0342C21.0191 19.6379 21.2034 19.4396 21.4679 19.4396C21.957 19.4396 22.1945 20.1262 22.5115 20.1262C22.6834 20.1262 22.8676 19.9683 22.8676 19.7308C22.8676 18.7261 20.9392 18.8714 20.9392 17.4585C20.9395 17.0747 21.071 16.5997 21.428 15.9398ZM23.9379 24.525C23.9379 24.7101 24.07 24.8556 24.2545 24.8556C24.4663 24.8556 24.599 24.6705 24.599 24.4594C24.599 24.1817 24.3474 23.7986 24.1092 23.7986C24.0038 23.7986 24.0436 23.9567 24.0167 24.1284C24.0041 24.2608 23.9379 24.4195 23.9379 24.525ZM23.251 22.7684C24.6382 23.0323 25.3916 24.0759 25.3916 25.0536C25.3916 25.7276 24.9686 26.3471 24.2278 26.3471C23.5551 26.3471 23.0659 25.8849 23.0659 25.1459C23.0659 24.5911 23.5018 24.0097 23.5018 23.4412C23.5021 23.2174 23.4365 22.9928 23.251 22.7684ZM21.4942 25.0144C21.6263 25.1459 21.6662 25.2783 21.6662 25.4104C21.6662 25.6081 21.5736 25.8199 21.5736 26.0433C21.5736 26.3605 21.8111 26.6373 22.155 26.6373C22.5246 26.6373 22.7751 26.3468 22.7751 26.0035C22.7754 25.503 22.2598 25.0144 21.4942 25.0144ZM25.8666 24.1685C25.9592 24.3135 25.9987 24.4594 25.9987 24.5914C25.9987 24.9611 25.7477 25.305 25.7477 25.6878C25.7477 26.1227 26.0787 26.4798 26.5789 26.4798C27.1214 26.4798 27.4911 26.0436 27.4911 25.5296C27.4914 24.8296 26.8572 24.2344 25.8666 24.1685ZM21.8111 23.4682C22.4183 23.5475 22.5642 23.7587 22.5642 23.9304C22.5642 24.2215 22.3003 24.3138 22.0493 24.3138C21.8645 24.3138 21.6533 24.2742 21.428 24.2742C21.1372 24.2742 20.8472 24.3404 20.6091 24.6178C20.7804 24.6442 21.032 24.7628 21.032 25.0273C21.032 25.7938 18.9047 25.1591 18.9047 27.1274C18.9047 28.1713 19.9887 29.3062 21.6263 29.3062C22.4716 29.3062 23.0129 29.0301 23.0129 28.7128C23.0129 28.4618 22.5642 28.6335 22.5642 28.4223C22.5642 28.3291 22.7226 28.1578 22.7226 28.0125C22.7226 27.9466 22.6699 27.8277 22.5642 27.8277C22.326 27.8277 21.8779 28.2105 20.9658 28.2105C20.2526 28.2105 19.5523 27.801 19.5523 27.246C19.5523 27.1274 19.6056 27.0609 19.6844 27.0609C19.7632 27.0609 19.8692 27.1142 19.9618 27.1142C20.0414 27.1142 20.0543 27.0609 20.0543 26.9156C20.0543 26.7706 20.0543 26.3605 20.3059 26.3605C20.5558 26.3605 21.032 27.2855 22.855 27.2855C23.4628 27.2855 24.6382 27.1669 25.074 26.7703C25.0612 28.2243 23.9244 30.1384 21.5475 30.1384C19.0769 30.1384 17.7565 28.1578 17.7565 26.3339C17.7565 24.3135 19.407 22.4773 21.6665 22.4773C22.2473 22.4773 22.7364 22.6759 22.7364 22.9263C22.7361 23.2705 21.8779 23.059 21.8111 23.4682ZM12.2489 9.94264C12.2489 9.71799 12.1958 9.66527 12.1428 9.66527C12.011 9.66527 11.8648 9.82372 11.6543 10.1799C11.6806 10.6553 11.76 10.867 11.8915 10.867C12.0371 10.8673 12.2489 10.4045 12.2489 9.94264ZM10.4384 10.4839C10.584 10.4839 10.7685 10.3255 11.1124 9.94264C11.1388 9.771 11.1387 9.61195 11.1387 9.41395C11.1387 9.14975 11.0327 8.8586 10.874 8.8586C10.4786 8.8586 10.2803 9.91598 10.2803 10.1931C10.2803 10.3521 10.3599 10.4839 10.4384 10.4839ZM12.5918 11.6596C12.9222 11.6596 13.2919 10.3914 13.2919 9.59907C13.2919 9.42743 13.2655 9.24261 13.1864 9.24261C12.909 9.24261 12.4457 10.5498 12.4457 11.2639C12.446 11.541 12.5121 11.6596 12.5918 11.6596ZM9.35528 10.9332C9.80459 10.9332 10.3201 8.50304 10.3201 8.09327C10.3201 7.98753 10.2803 7.90815 10.1883 7.90815C9.77853 7.90815 9.21 10.2197 9.21 10.7346C9.2097 10.8272 9.23636 10.9332 9.35528 10.9332ZM10.7952 11.937C10.2272 11.937 10.2012 12.6244 10.2012 14.011C9.77823 13.0998 9.0779 12.1221 8.25925 12.1221C7.7042 12.1221 7.49272 12.492 7.49272 13.1394C7.49272 13.2721 7.5059 13.47 7.53196 13.5887C7.59846 13.3649 7.80964 13.2724 8.07443 13.2724C8.64237 13.2724 9.32892 13.7076 9.77823 14.3022C9.26302 14.2096 8.76098 14.1171 8.33833 14.1171C8.07443 14.1171 7.8363 14.1434 7.6383 14.236C7.25549 14.4076 6.73967 14.9758 6.73967 15.8343C6.73967 15.9664 6.75315 16.1108 6.78011 16.2696C7.24231 15.2391 8.47073 14.7776 9.26332 14.7776C9.42118 14.7776 9.54039 14.7907 9.63295 14.8042C9.22318 15.1729 9.13092 15.8209 9.10456 16.2564C9.09138 16.4679 9.0117 16.4813 8.86732 16.4813C8.86732 16.9163 9.21 17.5639 9.21 17.8943C9.21 18.0132 9.1441 18.1189 9.0782 18.1453C9.0782 18.7261 9.65901 19.1488 9.65901 19.5187C9.65901 19.6113 9.63295 19.6903 9.59311 19.7305C9.63295 19.968 10.2671 20.3772 10.3465 20.5488C10.4786 20.8265 10.5711 20.8526 10.6367 20.8526C10.8611 20.8526 11.2178 20.5887 11.2178 20.3502C11.2178 20.2715 11.1519 20.1789 11.0992 20.1391C10.8479 19.9545 10.7161 19.5579 10.6107 19.2937C10.5545 19.2943 10.4996 19.2766 10.4544 19.2433C10.4092 19.2099 10.376 19.1628 10.3599 19.1089C10.3066 18.937 10.28 18.3163 10.1748 18.0129C10.0026 17.9731 9.92381 17.9072 9.92381 17.5501C9.92381 17.3785 10.0292 16.7048 10.0292 16.4673C9.94957 16.4673 9.84413 16.4142 9.84413 16.2558C9.84413 15.8337 10.2671 15.503 10.386 14.9621C11.1387 15.5165 11.3236 16.0842 11.3236 16.5862C11.3236 16.8498 11.2837 17.1008 11.231 17.3389C11.7864 17.0616 12.6179 16.6524 12.6179 15.8206C12.6179 15.332 12.3932 14.7907 10.9003 14.579C11.3628 14.4073 11.9445 14.3148 12.4331 14.3148C13.2784 14.3148 13.7672 14.579 13.8733 15.1729C14.0443 14.9096 14.1764 14.6056 14.1764 14.3282C14.1764 13.6806 13.6357 13.2589 12.948 13.2589C12.1425 13.2589 11.4287 13.6809 10.6622 14.1961C11.0061 13.4832 11.2439 13.0606 11.6668 13.0606C11.7327 13.0606 11.7986 13.0732 11.8645 13.0866C11.7067 12.5052 11.1124 11.937 10.7952 11.937ZM2.36756 3.70737C2.36756 3.97127 1.36349 4.85702 1.00704 4.85702C0.87494 4.85702 0.8354 4.69826 0.8354 4.55328C0.8354 4.28878 0.954019 3.91885 1.0993 3.79963C1.27093 3.64117 1.66753 3.56269 1.97126 3.56269C2.15668 3.56299 2.36756 3.60164 2.36756 3.70737ZM33.0524 21.4603C33.7128 21.4603 34.2412 22.3191 34.2412 23.3235C34.2412 24.3926 33.7392 25.556 32.8424 26.3474C32.8289 24.5648 30.6485 25.133 30.6485 23.8381C30.6485 23.2836 31.0445 22.9134 31.5208 22.9134C31.9431 22.9134 32.2744 23.0326 32.512 23.2705C32.2744 23.0461 32.1546 22.7289 32.1546 22.4249C32.154 21.9228 32.4718 21.4603 33.0524 21.4603ZM23.251 7.94799C23.1456 7.77605 22.749 7.68379 22.5642 7.68379C21.9834 7.68379 21.5871 8.09357 21.5077 8.4632C21.449 8.32063 21.4174 8.16835 21.4145 8.01419C21.4145 7.43248 21.8111 6.71957 22.7754 6.71957C23.6213 6.71957 23.9514 7.16858 24.07 7.16858C24.2015 7.16858 24.3345 7.03648 24.4396 7.03648C24.5852 7.03648 24.5852 7.26114 24.5852 7.4196C24.5852 7.94829 24.3471 8.8592 23.7534 9.18989C23.6473 8.96494 23.4362 8.71452 23.0929 8.55546C23.0532 8.54013 23.0193 8.51296 22.9956 8.47763C22.972 8.44231 22.9598 8.40056 22.9608 8.35806C22.9608 8.21249 23.0929 8.02707 23.251 7.94799ZM21.2567 8.91222C21.6006 9.24231 21.9037 9.38759 22.2736 9.38759C22.4186 9.38759 22.5908 9.34775 22.6837 9.34775C22.8023 9.34775 22.8814 9.40077 22.8814 9.49303C22.8814 9.63861 22.7493 9.87644 22.5905 10.0085C22.749 10.0747 22.9212 10.1008 23.1061 10.1008C23.8585 10.1008 24.7173 9.62513 24.7173 8.43684C24.8758 8.64742 24.9689 9.08356 24.9689 9.28155C24.9689 10.7212 23.9112 11.2762 22.9347 11.2762C22.3006 11.2762 21.9834 11.065 21.904 11.065C21.6536 11.065 21.6665 11.5668 21.4945 11.5536C21.1908 11.5012 20.9137 10.8269 20.9137 10.114C20.9131 9.69133 21.0191 9.24231 21.2567 8.91222ZM12.0769 5.06849C12.0769 5.53039 13.728 7.78953 14.0446 7.78953C14.3085 7.78953 14.5068 7.32704 14.5068 6.93045C14.5068 6.82531 14.4804 6.71957 14.4277 6.64049C14.1896 6.31009 12.5118 4.98911 12.1428 4.98911C12.1033 4.98941 12.0769 5.02895 12.0769 5.06849ZM31.1368 3.98475C31.1368 3.04748 28.892 2.80965 28.892 2.59787C28.892 2.42623 30.1465 2.13538 30.7941 2.1219C29.8023 0.854534 28.3903 0.986633 28.3903 0.761976C28.3903 0.629578 29.4474 0.364783 30.4239 0.364783C31.2428 0.364783 32.0099 0.5502 32.0099 1.17115C32.0099 1.51473 31.732 1.87178 31.732 2.39957C31.732 2.69013 31.877 2.94144 32.261 2.94144C32.6704 2.94144 32.763 2.50531 32.763 2.04282C32.763 1.6606 32.6968 1.36945 32.6968 1.18463C32.6968 0.629578 33.0787 0.259943 33.6206 0.259943C34.0699 0.259943 34.1753 0.457641 34.8358 0.457641C34.4797 0.669118 34.3473 1.05253 34.3473 1.23735C34.3473 1.7924 34.7046 2.17522 34.7046 3.31168C34.7046 5.39829 32.7501 6.13816 30.3577 6.13816C29.6972 6.13816 28.998 6.08514 28.3112 5.9794C28.2049 5.96622 28.1785 5.94016 28.1785 5.87396C28.1785 5.70202 29.117 5.60977 29.117 4.76416C29.117 4.43406 29.0106 4.11655 29.0106 3.99793C29.0105 3.98393 29.0131 3.97005 29.0184 3.95709C29.0237 3.94413 29.0315 3.93237 29.0414 3.92248C29.0513 3.9126 29.0631 3.9048 29.0761 3.89955C29.0891 3.89429 29.103 3.89169 29.117 3.89189C29.3153 3.89189 29.7101 4.65872 30.4496 4.65872C30.6482 4.65902 31.1368 4.59282 31.1368 3.98475ZM33.3687 2.65089C33.3687 3.82659 32.5117 4.72492 30.9654 4.97623C31.1368 4.98941 31.2961 4.98941 31.4546 4.98941C33.2635 4.98941 33.924 4.17017 33.924 3.48362C33.924 3.1002 33.7128 2.75693 33.3687 2.65089ZM32.1151 13.2718C32.1151 12.9941 31.4148 12.9677 31.3486 12.188C31.3351 12.0694 31.2958 11.8579 31.1503 11.8579C30.9127 11.8579 31.0969 12.5843 30.833 12.5843C30.2247 12.5843 30.027 11.396 29.8023 11.396C29.7496 11.396 29.6837 11.4356 29.6837 11.594C29.6837 11.7393 29.7101 11.8319 29.7101 12.0032C29.7101 12.1745 29.6702 12.2937 29.5136 12.2937C29.1568 12.2937 28.8396 11.4616 28.5353 11.4616C28.4691 11.4616 28.4038 11.5018 28.4038 11.5674C28.4038 11.7264 28.6677 12.0161 28.6677 12.1613C28.6677 12.4789 27.8083 12.3063 27.8083 12.5711C27.8083 12.6903 27.9275 12.7299 28.0862 12.7299C28.3642 12.7299 28.8001 12.6107 29.0241 12.6107C29.1568 12.6107 29.3551 12.6376 29.3551 12.809C29.3551 12.9941 28.8788 13.2322 28.8788 13.4036C28.8788 13.4832 28.9585 13.5222 29.0238 13.5222C29.3806 13.5222 30.0138 12.9018 30.4631 12.9018C30.5428 12.9018 30.7417 12.9417 30.7417 13.0606C30.7417 13.2322 30.2918 13.5353 30.2918 13.7864C30.2918 13.8526 30.3316 13.9319 30.4104 13.9319C30.6485 13.9319 30.9657 13.311 31.4151 13.311C31.5864 13.311 31.838 13.3775 31.9698 13.3775C32.0758 13.3775 32.1151 13.311 32.1151 13.2718ZM22.6564 3.19276C22.6564 3.04748 22.1415 2.76981 22.1415 2.61165C22.1415 2.58499 22.1685 2.57181 22.2071 2.57181C22.3521 2.57181 22.6031 2.62453 22.802 2.62453C22.9734 2.62453 22.9997 1.88556 23.1327 1.88556C23.2247 1.88556 23.3837 2.58499 23.5287 2.58499C23.7 2.58499 24.0167 2.38669 24.1494 2.38669C24.1757 2.38669 24.2015 2.39987 24.2015 2.42653C24.2015 2.51939 23.8714 2.87555 23.8714 2.98158C23.8714 3.1005 24.6122 3.24578 24.6122 3.35182C24.6122 3.48362 23.8579 3.47074 23.8579 3.58875C23.8579 3.68131 24.1359 4.05095 24.1359 4.17047C24.1359 4.19683 24.1224 4.21001 24.096 4.21001C23.9906 4.21001 23.5817 4.02489 23.4625 4.02489C23.3175 4.02489 23.0794 4.56676 22.9605 4.56676C22.9206 4.56676 22.8943 4.51344 22.8943 4.44754L22.8673 3.91915C22.8673 3.86613 22.8416 3.81341 22.7748 3.81341C22.6163 3.81341 22.3126 3.79993 22.22 3.79993C22.1544 3.79993 22.1281 3.78675 22.1281 3.76009C22.129 3.65465 22.6564 3.28502 22.6564 3.19276ZM25.2331 5.70232C24.3075 5.70232 23.7003 5.23983 23.7003 5.00259C23.7003 4.88368 23.78 4.8043 23.8846 4.8043C24.176 4.8043 24.8102 5.25271 25.0213 5.25271C25.074 5.25271 25.1139 5.22665 25.1139 5.14757C25.1139 4.91004 24.8892 4.51344 24.8892 4.31544C24.8892 4.26272 24.9291 4.22289 25.0084 4.22289C25.3646 4.22289 25.8936 4.36846 26.171 4.36846C26.2641 4.36846 26.2896 4.31514 26.2896 4.26242C26.2896 3.97127 25.4314 3.40394 25.4314 3.2323C25.4314 3.07384 26.5002 2.83601 26.5002 2.58469C26.5002 2.32049 25.0474 2.50531 25.0474 2.25399C25.0474 2.06918 25.3248 1.75256 25.3248 1.60758C25.3248 1.54109 25.272 1.51502 25.1798 1.51502C25.0612 1.51502 24.4261 1.76604 24.1625 1.76604C24.0304 1.76604 23.8717 1.73968 23.8717 1.55456C23.8717 1.25083 24.3872 0.920134 25.1933 0.920134C26.5002 0.920134 27.2802 1.81876 27.2802 3.32486C27.2802 5.22665 25.9463 5.70232 25.2331 5.70232ZM16.2906 28.555C16.2906 28.6733 16.2504 28.8057 16.1447 28.9375C16 28.673 15.5896 28.5409 15.406 28.5409C14.0446 28.5409 14.5601 30.5089 13.1067 30.5089C12.499 30.5089 12.4457 30.4295 12.2222 30.4295C12.1293 30.4295 12.0766 30.4694 12.0766 30.5481C12.0766 30.8914 12.5652 31.7379 13.9254 31.7379C15.2871 31.7379 16.5937 30.9052 16.5937 29.8739C16.591 29.6871 16.5504 29.5029 16.4745 29.3323C16.5278 29.2529 16.6596 29.2002 16.7782 29.2002C16.99 29.2002 17.1089 29.4383 17.3069 29.4383C17.5184 29.4383 17.6766 29.2799 17.6766 29.0699C17.6766 28.898 17.584 28.779 17.4252 28.6991C17.5313 28.6203 17.6104 28.4882 17.6104 28.3432C17.6104 28.1183 17.4516 27.9071 17.1883 27.9071C17.0691 27.9071 16.99 27.9469 16.8977 28.0389C16.8711 27.801 16.7393 27.5764 16.488 27.5764C16.2906 27.5764 16.1447 27.722 16.1447 27.9466C16.1447 28.1578 16.2906 28.3294 16.2906 28.555ZM12.7368 29.0564C12.3408 29.0564 11.7468 28.6335 11.7468 28.3956C11.7468 28.1973 11.9319 28.0916 12.0769 28.0916C12.4073 28.0916 13.0013 28.5014 13.0013 28.8449C13.0013 28.9375 12.9351 29.0564 12.7368 29.0564ZM9.05154 26.0963C10.1089 26.3608 10.6367 26.9288 10.7425 27.6027C10.8482 28.2504 10.98 28.7793 11.2313 29.0432C11.5617 29.4117 12.2093 29.7421 12.7766 29.7421C13.2523 29.7421 13.636 29.5842 13.636 29.1493C13.636 28.6733 12.9884 27.603 12.0371 27.603C11.9448 27.603 11.8256 27.6165 11.6938 27.6165C11.5749 27.6165 11.4026 27.5899 11.2969 27.4976C11.0851 27.3131 11.0195 26.3216 10.6229 25.7282C10.1877 25.0674 9.71203 24.8826 9.06472 24.8826C8.60223 24.8826 8.08731 25.1336 8.08731 25.5036C8.08761 25.7276 8.20653 25.8852 9.05154 26.0963ZM15.6825 24.4857C15.6825 23.8914 14.4544 23.8779 14.4544 22.9799C14.4544 22.7553 14.5991 22.3718 14.8908 21.9621C15.0091 22.6492 15.2874 23.006 15.8808 23.2306C17.0562 23.6662 17.215 24.3264 17.215 25.0273C17.215 26.2153 16.3828 27.6956 14.2432 27.6956C12.5256 27.6956 11.2972 26.1625 11.2972 24.8685C11.2972 24.5118 11.3898 24.1152 11.6147 24.1152C11.8124 24.1152 11.8786 24.2736 12.0374 24.4324C12.6314 25.027 13.279 25.1854 14.2165 25.1854C15.0622 25.1857 15.6825 24.8425 15.6825 24.4857ZM15.7352 25.4371C15.2736 25.6216 15.102 25.6081 15.102 26.0697C15.102 26.2416 15.0625 26.4663 15.0625 26.5852C15.0625 26.744 15.0888 26.8365 15.2739 26.8365C15.7487 26.8365 16.5015 26.0307 16.5015 25.3442C16.5015 25.1594 16.3963 25.0803 16.2777 25.0803C16.1714 25.0803 16.0524 25.2915 15.7352 25.4371ZM11.5219 18.7654C11.5219 17.9203 13.53 17.471 13.53 16.4277C13.53 16.2561 13.4638 15.953 13.3449 15.728C14.0446 16.1105 14.5601 16.7584 14.5601 17.2862C14.5601 18.198 13.6094 18.6201 13.6094 19.1883C13.6094 19.8494 14.6263 19.9548 14.6263 20.7738C14.6263 21.4475 13.6621 22.2266 13.6621 23.0988C13.6621 23.7719 14.1366 24.3267 14.8639 24.4195C14.6263 24.4725 14.4145 24.5121 14.1899 24.5121C12.856 24.5121 11.482 23.4154 11.482 22.1079C11.482 21.4606 11.76 20.8927 12.1827 20.4832C12.552 20.8001 12.9222 21.0119 13.1595 21.0119C13.3712 21.0119 13.4638 20.9059 13.4638 20.7477C13.4638 20.258 11.5219 19.8096 11.5219 18.7654Z" fill="#1E1E1E"/>
<path fill-rule="evenodd" clip-rule="evenodd" d="M74.9565 23.9387C75.6004 23.9387 76.7061 23.7296 77.5767 22.3342C77.0794 21.2307 76.7241 18.9946 76.6735 18.1818C76.4174 14.0232 78.0203 10.1109 79.7746 10.0034C81.0609 9.9265 82.0896 11.1437 82.2079 13.1117C82.4736 17.4496 81.307 19.6732 80.4139 21.3753C80.2395 21.7078 80.0755 22.0204 79.9347 22.3249C80.0803 23.051 81.3062 24.2826 82.4666 24.2826C82.8952 24.2826 83.4116 24.0688 83.5407 23.8948C83.4214 23.4914 83.3629 23.0725 83.3672 22.6518C83.3672 19.6494 85.3007 17.1139 86.9728 17.1139C88.3051 17.1139 89.0735 18.8733 89.0735 20.0362C89.0735 21.4068 87.9157 22.5243 86.2002 23.5974C86.5029 23.8948 87.0575 24.1117 87.5326 24.1117C89.9783 24.1117 91.2636 21.1522 92.2097 18.4446C92.3811 17.9298 92.6837 17.2006 93.2817 17.2006C93.732 17.2006 94.0677 18.4944 94.4459 19.9516C94.9335 21.8304 95.4916 23.9811 96.4566 23.9811C97.1879 23.9811 97.7869 22.4788 97.7869 21.3236C97.7869 20.9338 97.7253 20.7032 97.6579 20.4512C97.5768 20.1477 97.4874 19.8131 97.4874 19.132C97.4874 17.7604 98.2165 16.6011 99.206 16.6011C99.805 16.6011 100.021 17.2011 100.021 17.9303C100.021 20.6781 98.0472 25.7859 95.13 25.7859C93.7538 25.7859 93.3089 24.2954 92.9779 23.1863C92.7818 22.5291 92.6256 22.0058 92.3393 22.0058C92.0723 22.0058 91.7723 22.3742 91.3586 22.8822C90.4394 24.0112 88.9585 25.8298 86.0293 25.8298C85.3404 25.8298 84.6123 25.4864 84.0133 24.7959C82.9825 25.4864 82.1222 25.7859 81.1348 25.7859C80.1652 25.7859 79.5314 25.1761 79.0386 24.7019C78.7251 24.4003 78.4687 24.1535 78.2192 24.1535C77.9451 24.1535 77.6609 24.3636 77.2937 24.635C76.6237 25.1303 75.6774 25.8298 74.0125 25.8298C72.7193 25.8298 72.1024 24.7491 71.6426 23.9436C71.3694 23.465 71.1517 23.0835 70.8805 23.0835C70.599 23.0835 70.2523 23.6073 69.8616 24.1974C69.3578 24.9585 68.7809 25.8298 68.1771 25.8298C67.2449 25.8298 66.6919 24.5613 66.1566 23.3334C65.6545 22.1818 65.1681 21.0659 64.399 21.0659C63.7686 21.0659 62.4502 22.305 61.1632 23.5146C59.9073 24.695 58.6813 25.8472 58.1536 25.7926C57.7245 25.7472 57.5448 25.427 57.5897 24.9968C57.6345 24.5566 57.9269 23.5684 58.1603 22.7798L58.1603 22.7797C58.2414 22.5054 58.3155 22.2551 58.3695 22.0605C58.4991 21.5742 58.6247 21.0695 58.7405 20.6043L58.7405 20.6042L58.7406 20.6038L58.7406 20.6038L58.7406 20.6038C58.9349 19.8235 59.1015 19.1543 59.2128 18.8686C59.3889 18.409 59.8676 18.0811 60.2482 18.1162C60.4276 18.1335 60.4901 18.4468 60.5462 18.7284L60.5463 18.7284L60.5585 18.7896C60.7739 19.8544 61.0785 20.9353 61.4204 20.9353C61.6727 20.9353 62.1691 20.2642 62.7458 19.4845C63.5453 18.4036 64.4993 17.1139 65.1716 17.1139C65.8257 17.1139 66.2144 18.3937 66.633 19.7722C67.1216 21.3811 67.651 23.1243 68.6909 23.1243C69.3354 23.1243 69.81 22.3513 70.237 21.4073C70.2809 19.8173 70.709 17.5456 71.9964 17.5456C72.8996 17.5456 73.3283 19.5601 72.6827 21.3231C72.6822 23.4228 74.0548 23.9387 74.9565 23.9387ZM106.973 19.9056C106.973 18.833 105.987 17.3292 104.528 17.3292C102.597 17.3292 100.71 19.4325 100.71 22.3508C100.71 24.9664 102.337 25.8288 103.968 25.8288C106.801 25.8288 108.52 23.5065 109.42 21.5777C109.536 21.9256 109.64 22.396 109.75 22.8973L109.75 22.8973C110.048 24.2506 110.395 25.8288 111.18 25.8288C111.609 25.8288 111.909 25.6134 112.427 24.4541C112.562 24.1505 112.697 23.8422 112.832 23.5335C113.978 20.917 115.136 18.2732 116.674 18.2732C116.925 18.2732 117.019 18.4513 117.133 18.6678C117.31 19.0038 117.536 19.4325 118.475 19.4325C119.205 19.4325 119.719 18.833 119.719 18.1426C119.719 17.1557 118.818 16.3842 117.444 16.3842C114.565 16.3842 113.304 19.4717 112.584 21.2365L112.584 21.2366L112.584 21.2366L112.584 21.2367L112.584 21.2367L112.584 21.2368L112.584 21.2369C112.295 21.9428 112.094 22.437 111.909 22.437C111.329 22.437 111.163 21.0186 111.01 19.7159C110.881 18.6099 110.762 17.5874 110.406 17.5874C109.72 17.5874 109.376 18.4038 109.29 18.7881C108.731 21.02 107.146 24.2403 104.74 24.2403C104.183 24.2403 103.196 24.025 103.196 23.4667C103.196 23.2779 103.568 23.1402 104.078 22.9512C105.194 22.5378 106.973 21.8793 106.973 19.9056ZM72.5113 10.5927C73.241 10.5927 73.7987 11.0636 73.8395 11.7525C73.9278 12.7404 73.2415 13.8109 72.2985 13.8109C71.4805 13.8109 71.0101 13.1659 71.0101 12.523C70.9208 11.4504 71.6954 10.5927 72.5113 10.5927ZM44.9387 19.7346C44.8959 17.9716 44.9821 16.2138 45.7128 13.7252C46.0981 12.397 46.443 11.9219 47.6426 11.6668C48.5866 11.4943 48.5025 12.4796 48.2881 13.6395C47.8167 16.2132 47.5987 17.4578 47.7728 20.3776C47.9411 23.4662 49.3602 24.6689 50.9038 24.6689C53.2214 24.7128 54.2521 22.7825 54.6808 19.9913C55.0226 17.7594 54.7649 16.6842 54.5501 16C54.5181 15.903 54.4725 15.7762 54.42 15.6305L54.42 15.6304L54.42 15.6304C54.2636 15.1958 54.0467 14.5932 53.95 14.1125C53.7796 12.4801 54.5501 11.7112 55.1956 11.4948C55.9687 11.279 56.2703 11.6673 56.5682 12.5695C56.9561 13.9416 56.9989 15.7413 56.8693 18.315C56.6984 21.8333 54.9379 26.0865 50.5609 25.9987C46.7839 25.915 45.1128 23.4667 44.9387 19.7346ZM80.8177 14.2702C80.7438 13.0721 80.4526 12.5309 79.8102 12.5738C78.9545 12.6265 78.5605 15.3144 78.734 18.1396C78.845 19.9848 79.1192 20.2672 79.3759 20.2502C79.8489 20.2223 80.9819 16.9276 80.8177 14.2702ZM86.3307 19.1748C86.8016 19.1748 87.1889 19.7785 87.1889 20.5056C87.1889 21.3629 86.844 22.3936 85.6025 22.782C85.428 22.5635 85.0438 22.0502 85.0438 20.9771C85.0438 19.604 85.9423 19.1748 86.3307 19.1748ZM103.968 19.048C104.87 19.048 105.129 20.118 104.914 20.763C104.699 21.4059 103.928 22.1351 102.725 22.3499C102.468 21.7049 102.338 19.048 103.968 19.048Z" fill="#1E1E1E"/>
</svg>
