<svg width="107" height="32" viewBox="0 0 107 32" fill="none" xmlns="http://www.w3.org/2000/svg">
<path d="M15.996 0C7.16183 0 0 7.16357 0 16.0001C0 24.837 7.16183 32 15.996 32C24.8311 32 31.9921 24.837 31.9921 16.0001C31.9921 7.16414 24.8311 0.000764257 15.9958 0.000764257L15.996 0ZM23.3316 23.0767C23.2634 23.1886 23.1737 23.2859 23.0678 23.3631C22.9619 23.4403 22.8418 23.4958 22.7144 23.5265C22.587 23.5572 22.4549 23.5625 22.3254 23.542C22.196 23.5216 22.0719 23.4758 21.9602 23.4073C18.2045 21.1126 13.4765 20.5929 7.9085 21.8654C7.65068 21.924 7.38012 21.8779 7.1563 21.7371C6.93247 21.5963 6.7737 21.3723 6.71486 21.1145C6.68556 20.9868 6.68172 20.8546 6.70356 20.7255C6.72541 20.5963 6.77251 20.4727 6.84217 20.3618C6.91182 20.2509 7.00267 20.1548 7.10951 20.0791C7.21635 20.0033 7.33707 19.9494 7.46478 19.9204C13.5581 18.5279 18.7848 19.1274 23.0012 21.7049C23.4711 21.9934 23.6201 22.6067 23.3316 23.0767ZM25.2895 18.7201C24.9285 19.307 24.1606 19.4924 23.5742 19.1313C19.2745 16.4877 12.7203 15.7221 7.63459 17.2663C6.97502 17.4656 6.2784 17.0937 6.07822 16.4351C5.9827 16.1185 6.01661 15.7769 6.17251 15.4853C6.32842 15.1936 6.59359 14.9757 6.90989 14.8793C12.7192 13.1162 19.9412 13.9702 24.8788 17.0053C25.4652 17.3664 25.6505 18.1345 25.2895 18.7203V18.7201ZM25.4576 14.1835C20.3022 11.1205 11.7964 10.8389 6.87417 12.3332C6.08376 12.573 5.24788 12.1267 5.00835 11.336C4.89318 10.9562 4.93353 10.5461 5.12055 10.196C5.30756 9.84595 5.62593 9.58448 6.00563 9.46914C11.656 7.75338 21.049 8.08488 26.9846 11.6094C27.1537 11.7095 27.3015 11.842 27.4194 11.9993C27.5373 12.1567 27.623 12.3357 27.6716 12.5262C27.7202 12.7167 27.7308 12.9149 27.7027 13.1095C27.6746 13.304 27.6084 13.4912 27.5079 13.6601C27.0877 14.3713 26.167 14.6057 25.4584 14.1835H25.4576ZM43.5198 14.7704C40.7577 14.1116 40.2668 13.6492 40.2668 12.6777C40.2668 11.7598 41.1302 11.1421 42.4157 11.1421C43.6611 11.1421 44.8951 11.6112 46.1901 12.5768C46.2283 12.606 46.278 12.6177 46.3257 12.61C46.3498 12.6066 46.3728 12.5983 46.3935 12.5856C46.4142 12.5729 46.4321 12.5561 46.4461 12.5363L47.7946 10.6348C47.8213 10.5971 47.8325 10.5507 47.8261 10.505C47.8198 10.4593 47.7962 10.4177 47.7603 10.3887C46.2188 9.15197 44.4844 8.55069 42.4558 8.55069C39.4741 8.55069 37.3902 10.3408 37.3902 12.902C37.3902 15.6485 39.1876 16.6211 42.2935 17.3717C44.9352 17.9807 45.3821 18.4908 45.3821 19.4026C45.3821 20.4133 44.4806 21.0419 43.0289 21.0419C41.4167 21.0419 40.1006 20.4974 38.6298 19.2249C38.5932 19.1939 38.546 19.1781 38.498 19.1809C38.4484 19.1848 38.4044 19.2077 38.3739 19.244L36.8611 21.0438C36.798 21.1202 36.8057 21.2311 36.8783 21.296C38.5897 22.8245 40.6947 23.6308 42.9677 23.6308C46.1806 23.6308 48.2569 21.8749 48.2569 19.1561C48.2626 16.862 46.8892 15.5914 43.5255 14.7729L43.5198 14.7704ZM55.5268 12.0458C54.1343 12.0458 52.9921 12.5946 52.0485 13.719V12.4534C52.0487 12.4055 52.0299 12.3595 51.9962 12.3255C51.9626 12.2915 51.9168 12.2723 51.8689 12.2721H49.3953C49.296 12.2721 49.2158 12.3534 49.2158 12.4534V26.5159C49.2158 26.6152 49.296 26.6974 49.3953 26.6974H51.8689C51.9683 26.6974 52.0485 26.6152 52.0485 26.5159V22.0775C52.9921 23.1341 54.1343 23.6518 55.5268 23.6518C58.115 23.6518 60.7357 21.659 60.7357 17.8494C60.7396 14.039 58.1189 12.0456 55.5287 12.0456L55.5268 12.0458ZM57.8591 17.8494C57.8591 19.7885 56.6653 21.1432 54.9538 21.1432C53.2633 21.1432 51.9874 19.7274 51.9874 17.8494C51.9874 15.9712 53.2633 14.5558 54.9538 14.5558C56.6366 14.5556 57.8591 15.9405 57.8591 17.8492V17.8494ZM67.4498 12.0458C64.1167 12.0458 61.5055 14.613 61.5055 17.8909C61.5055 21.1336 64.0995 23.6728 67.4097 23.6728C70.7544 23.6728 73.3731 21.1145 73.3731 17.8494C73.3731 14.5954 70.7716 12.0462 67.4498 12.0462V12.0458ZM67.4498 21.1623C65.6772 21.1623 64.3402 19.7369 64.3402 17.8484C64.3402 15.9514 65.6314 14.5748 67.4097 14.5748C69.1938 14.5748 70.5385 15.9995 70.5385 17.8899C70.5385 19.7866 69.2396 21.1623 67.4498 21.1623ZM80.4903 12.2721H77.7683V9.48901C77.7684 9.46533 77.7639 9.44185 77.7549 9.41993C77.7459 9.39801 77.7327 9.37807 77.7161 9.36125C77.6994 9.34443 77.6796 9.33106 77.6577 9.3219C77.6359 9.31275 77.6125 9.30798 77.5888 9.30788H75.1152C75.0159 9.30788 74.9337 9.38928 74.9337 9.48901V12.2721H73.7456C73.6463 12.2721 73.5661 12.3534 73.5661 12.4534V14.5793C73.5661 14.6791 73.6463 14.7607 73.7456 14.7607H74.9337V20.2624C74.9337 22.4844 76.0397 23.6117 78.223 23.6117C79.1093 23.6117 79.8447 23.4283 80.538 23.0347C80.5953 23.0041 80.6297 22.943 80.6297 22.878V20.8527C80.6297 20.7916 80.5972 20.7324 80.5438 20.6999C80.5177 20.6832 80.4878 20.6738 80.4569 20.6724C80.4261 20.6711 80.3954 20.6779 80.368 20.6922C79.8924 20.9311 79.4321 21.0419 78.9163 21.0419C78.1236 21.0419 77.7683 20.6808 77.7683 19.8745V14.7616H80.4903C80.5896 14.7616 80.6698 14.6802 80.6698 14.5803V12.4545C80.6706 12.4308 80.6666 12.4072 80.658 12.385C80.6494 12.3629 80.6364 12.3428 80.6198 12.3258C80.6032 12.3089 80.5833 12.2955 80.5614 12.2864C80.5395 12.2774 80.5159 12.2729 80.4922 12.2732L80.4903 12.2721ZM89.9722 12.2829V11.9411C89.9722 10.9356 90.358 10.4871 91.2214 10.4871C91.7371 10.4871 92.1516 10.5895 92.6158 10.7443C92.6731 10.7623 92.7323 10.7533 92.7781 10.7191C92.8014 10.7023 92.8203 10.6802 92.8333 10.6546C92.8462 10.629 92.8529 10.6007 92.8526 10.572V8.48745C92.8531 8.44852 92.8408 8.4105 92.8177 8.37916C92.7946 8.34782 92.762 8.32487 92.7246 8.31378C92.2357 8.16799 91.6091 8.01839 90.6693 8.01839C88.3867 8.01839 87.1776 9.30502 87.1776 11.7378V12.2614H85.9895C85.8902 12.2614 85.8081 12.3427 85.8081 12.4425V14.5793C85.8081 14.6791 85.8902 14.7607 85.9895 14.7607H87.1776V23.2449C87.1776 23.3461 87.2598 23.4264 87.3591 23.4264H89.8308C89.932 23.4264 90.0123 23.3461 90.0123 23.2449V14.7612H92.3216L95.8592 23.2449C95.458 24.1352 95.0626 24.3129 94.524 24.3129C94.0885 24.3129 93.6281 24.183 93.1602 23.9251C93.1158 23.9027 93.0646 23.8979 93.0169 23.9117C92.9691 23.9289 92.929 23.9633 92.9099 24.0091L92.0714 25.8491C92.0313 25.937 92.0657 26.0382 92.1497 26.0841C93.0245 26.5579 93.8134 26.7604 94.7895 26.7604C96.6156 26.7604 97.626 25.9083 98.5142 23.6194L102.804 12.5306C102.816 12.5031 102.82 12.4734 102.816 12.444C102.813 12.4145 102.802 12.3864 102.785 12.3622C102.769 12.338 102.747 12.3181 102.722 12.3044C102.696 12.2907 102.667 12.2835 102.638 12.2835H100.063C99.985 12.2835 99.9163 12.3326 99.8914 12.405L97.2536 19.9395L94.3654 12.4001C94.3525 12.3659 94.3295 12.3365 94.2995 12.3156C94.2695 12.2948 94.2339 12.2836 94.1973 12.2835H89.9722V12.2829ZM84.4748 12.2721H82.0012C81.9019 12.2721 81.8197 12.3534 81.8197 12.4534V23.2449C81.8197 23.3461 81.9019 23.4264 82.0012 23.4264H84.4748C84.5741 23.4264 84.6563 23.3461 84.6563 23.2449V12.4541C84.6563 12.4303 84.6517 12.4067 84.6426 12.3846C84.6335 12.3626 84.6201 12.3426 84.6032 12.3257C84.5864 12.3089 84.5663 12.2955 84.5443 12.2865C84.5223 12.2774 84.4986 12.2727 84.4748 12.2728V12.2721ZM83.2523 7.35807C82.2724 7.35807 81.4778 8.15137 81.4778 9.13134C81.4778 9.36442 81.5237 9.59523 81.6129 9.81057C81.7021 10.0259 81.8328 10.2216 81.9976 10.3864C82.1624 10.5512 82.358 10.6819 82.5733 10.7711C82.7886 10.8603 83.0193 10.9062 83.2523 10.9061C84.2322 10.9061 85.0249 10.1119 85.0249 9.13134C85.0249 8.15156 84.2303 7.35807 83.2523 7.35807ZM104.917 15.742C103.939 15.742 103.177 14.9557 103.177 14.001C103.177 13.0462 103.949 12.251 104.927 12.251C105.905 12.251 106.667 13.0371 106.667 13.9911C106.667 14.9458 105.895 15.742 104.917 15.742ZM104.927 12.4241C104.035 12.4241 103.36 13.133 103.36 14.001C103.36 14.8686 104.031 15.5679 104.917 15.5679C105.809 15.5679 106.483 14.8596 106.483 13.9911C106.483 13.1234 105.813 12.4241 104.927 12.4241ZM105.312 14.1701L105.805 14.8594H105.389L104.946 14.227H104.566V14.8594H104.218V13.0321H105.032C105.458 13.0321 105.736 13.2493 105.736 13.615C105.738 13.9146 105.565 14.0977 105.314 14.1701H105.312ZM105.018 13.3456H104.566V13.9236H105.018C105.244 13.9236 105.379 13.813 105.379 13.6343C105.379 13.4463 105.244 13.3456 105.018 13.3456Z" fill="#1E1E1E"/>
</svg>
