<svg width="123" height="32" viewBox="0 0 123 32" fill="none" xmlns="http://www.w3.org/2000/svg">
<path fill-rule="evenodd" clip-rule="evenodd" d="M108.588 9.44168C108.588 8.8695 108.127 8.40614 107.554 8.40614H106.023C105.45 8.40614 104.989 8.87145 104.989 9.44363V25.4602C104.989 26.033 105.451 26.4964 106.023 26.4964H107.555C108.127 26.4964 108.588 26.0304 108.588 25.4589V9.44168ZM110.54 9.86723V10.6291C110.54 10.9432 110.798 11.198 111.113 11.198H121.678C122.16 11.198 122.551 10.8089 122.551 10.3273V9.03828C122.551 8.55603 122.155 8.12005 121.678 8.16763C121.678 8.16763 111.463 9.16993 111.136 9.20642C110.971 9.2209 110.819 9.2971 110.708 9.4197C110.598 9.5423 110.538 9.7022 110.54 9.86723ZM101.987 26.497C99.3585 26.497 97.7039 24.5035 97.7039 22.2852L97.7026 15.8765H96.9505C96.8553 15.8765 96.7611 15.8579 96.6731 15.8215C96.5852 15.7852 96.5052 15.7319 96.4379 15.6647C96.3705 15.5974 96.3171 15.5176 96.2806 15.4297C96.2441 15.3418 96.2253 15.2476 96.2252 15.1524V14.0797C96.2252 13.679 96.551 13.3564 96.9531 13.3564L97.7026 13.3577L97.7013 9.41757C97.7013 8.85972 98.1503 8.40745 98.7094 8.40745H100.204C100.76 8.40745 101.212 8.86298 101.212 9.42082V13.3583L103.54 13.3577C103.941 13.3577 104.268 13.6796 104.268 14.0811V15.1537C104.268 15.5552 103.942 15.8778 103.542 15.8778L101.212 15.8771L101.215 21.8049C101.215 22.9681 101.92 23.7625 103.179 23.7625H103.391C103.826 23.7625 104.18 24.1125 104.18 24.5478V25.7111C104.18 26.1477 103.828 26.4977 103.392 26.4977H101.987V26.497ZM77.3738 12.8956C73.1248 12.8956 70.7422 16.2205 70.7422 19.7247C70.7422 23.4589 73.2942 26.7453 77.4018 26.7453C80.2132 26.7453 82.9842 25.264 83.5075 22.8326C83.5785 22.5041 83.3576 22.074 82.8955 22.0714L80.8857 22.0727C80.5214 22.0727 80.2236 22.2474 80.0444 22.5106C79.469 23.3533 78.6276 23.801 77.3829 23.801C75.6227 23.801 74.4034 22.4148 74.3115 20.8775H82.8532C83.6398 20.8775 83.9923 20.45 83.9923 19.724C83.9923 16.3085 81.9688 12.8956 77.3738 12.8956ZM77.3738 15.6379C78.9417 15.6379 80.2959 16.7536 80.4335 18.2636H74.3369C74.4744 16.7536 75.8058 15.6379 77.3738 15.6379ZM116.3 12.8956C112.05 12.8956 109.667 16.2205 109.667 19.7247C109.667 23.4589 112.219 26.7453 116.327 26.7453C119.138 26.7453 121.909 25.264 122.432 22.8326C122.503 22.5041 122.282 22.074 121.82 22.0714L119.812 22.0727C119.446 22.0727 119.148 22.2474 118.969 22.5106C118.394 23.3533 117.552 23.801 116.308 23.801C114.547 23.801 113.328 22.4148 113.236 20.8775H121.778C122.564 20.8775 122.917 20.45 122.917 19.724C122.917 16.3085 120.893 12.8956 116.3 12.8956ZM116.3 15.6379C117.866 15.6379 119.222 16.7536 119.358 18.2636H113.262C113.398 16.7536 114.73 15.6379 116.3 15.6379Z" fill="#1E1E1E"/>
<path fill-rule="evenodd" clip-rule="evenodd" d="M94.8283 8.58494H67.1583C66.5294 8.58494 66.0217 9.09586 66.0217 9.72474L66.1162 20.5917C66.1162 20.5917 60.1546 9.82119 59.8437 9.27247C59.5511 8.75568 58.9235 8.2793 58.0542 8.2793H55.7791C55.1496 8.2793 54.6406 8.79022 54.6406 9.4191L54.6419 25.3562C54.6419 25.985 55.1502 26.4953 55.7798 26.4953H57.2389C57.5412 26.4946 57.8308 26.374 58.0441 26.1599C58.2575 25.9458 58.3771 25.6558 58.3768 25.3535L58.2849 14.1816C58.2849 14.1816 64.3045 25.0583 64.5619 25.4871C64.9093 26.0665 65.4978 26.4953 66.3489 26.4953H68.4388C69.069 26.4953 69.5767 25.985 69.5767 25.3562L69.5754 11.2862H94.8296C94.9316 11.2865 95.0327 11.2666 95.127 11.2277C95.2213 11.1889 95.307 11.1318 95.3793 11.0597C95.4515 10.9877 95.5088 10.9021 95.5479 10.8079C95.587 10.7137 95.6071 10.6127 95.6071 10.5107V9.36045C95.6066 9.15437 95.5243 8.95692 95.3782 8.8115C95.2322 8.66609 95.0344 8.58459 94.8283 8.58494Z" fill="#1E1E1E"/>
<path fill-rule="evenodd" clip-rule="evenodd" d="M90.3498 15.5051C91.5528 15.5051 92.4528 15.9417 92.7773 16.6957C92.9324 17.0587 93.2342 17.1285 93.648 17.1285H95.3026C95.5776 17.1285 95.8892 16.8932 95.8892 16.5354C95.8892 14.6116 93.5965 12.8944 90.3485 12.8944C86.9884 12.8944 84.7824 14.4956 84.7824 17.0444C84.7824 18.9955 86.3224 20.1562 88.2175 20.6515C89.0816 20.8783 90.557 21.2419 91.2745 21.4303C92.0488 21.6336 92.7408 21.8695 92.7408 22.5336C92.7408 23.5795 91.6362 23.936 90.4332 23.936C89.2915 23.936 88.1549 23.4257 87.8291 22.6124C87.6394 22.1399 87.3097 22.0715 86.8085 22.0715H85.1259C84.8319 22.0715 84.4944 22.3237 84.4944 22.7069V22.9233C84.4944 24.7851 86.9916 26.7343 90.4358 26.7343C92.8783 26.7343 96.2821 25.7197 96.2821 22.4436C96.2821 20.5459 95.0133 19.2321 92.9474 18.7081C92.1393 18.5035 90.198 18.0095 89.7757 17.9001C89.0223 17.7052 88.3211 17.4595 88.3211 16.8143C88.3211 15.8375 89.2237 15.5051 90.3498 15.5051ZM29.0989 4.90342C29.2459 4.90342 29.387 4.84499 29.491 4.74098C29.595 4.63698 29.6535 4.49592 29.6535 4.34883C29.6535 4.20175 29.595 4.06069 29.491 3.95668C29.387 3.85268 29.2459 3.79425 29.0989 3.79425C28.9518 3.79425 28.8107 3.85268 28.7067 3.95668C28.6027 4.06069 28.5443 4.20175 28.5443 4.34883C28.5443 4.49592 28.6027 4.63698 28.7067 4.74098C28.8107 4.84499 28.9518 4.90342 29.0989 4.90342ZM21.6514 3.92133C21.7751 3.92133 21.8938 3.87216 21.9813 3.78466C22.0688 3.69715 22.118 3.57847 22.118 3.45472C22.118 3.33096 22.0688 3.21228 21.9813 3.12477C21.8938 3.03727 21.7751 2.98811 21.6514 2.98811C21.5276 2.98811 21.4089 3.03727 21.3214 3.12477C21.2339 3.21228 21.1848 3.33096 21.1848 3.45472C21.1848 3.57847 21.2339 3.69715 21.3214 3.78466C21.4089 3.87216 21.5276 3.92133 21.6514 3.92133ZM16.0683 15.3311L15.8409 15.0874C16.4743 14.4989 17.1449 13.5605 17.2538 13.0098C17.3548 12.4976 18.0912 12.579 17.9511 13.1362C17.7732 13.8485 16.9012 14.7087 16.0683 15.3311ZM11.3429 4.11553C10.1771 4.61994 10.0063 5.81513 10.8242 6.53264C11.8102 7.39678 13.4362 6.64408 13.2798 5.32115C14.602 5.38893 15.4551 4.02299 15.2446 3.0637C15.8331 2.55995 15.8917 1.48336 15.186 1.06041C14.4293 0.607489 13.7171 0.780835 13.2635 1.65475C12.052 1.56677 10.8913 2.51954 11.3429 4.11553L10.7818 3.87049C10.0422 2.32338 11.3377 0.74304 12.9266 1.10733C13.0417 0.858092 13.2092 0.636643 13.4178 0.458131C13.6264 0.279619 13.8711 0.148252 14.1351 0.0730104C14.3991 -0.00223155 14.6763 -0.0195719 14.9476 0.0221718C15.219 0.0639155 15.4781 0.163758 15.7073 0.314878C16.7272 0.932679 16.9429 2.52671 15.8585 3.29961C16.3701 4.78742 15.3502 6.00282 13.7985 5.86401C13.6167 7.77737 11.8115 8.02436 10.6456 7.11591C9.98744 6.60303 9.71829 5.89203 9.59121 5.35569C9.45761 4.78807 9.45761 4.27976 8.89716 3.69519C8.47552 3.254 7.72021 3.26899 7.72021 3.26899C7.72021 1.87893 6.42009 0.606838 4.80586 1.22268C4.23367 0.730007 3.52659 0.681128 3.02023 1.29046C2.72567 1.64432 2.5634 2.57428 3.4712 3.00049C3.42428 4.26737 4.39008 5.07612 5.80229 4.96403C5.85768 5.63722 6.60387 6.26284 7.26533 6.35212L7.25947 6.69035C6.55369 6.62258 6.1718 6.86892 5.70128 7.45218C4.04143 7.37397 2.87881 8.11234 2.92704 9.30297C1.76052 9.52454 1.5422 10.7458 2.20366 11.3962C2.86513 12.0466 3.83484 11.7918 4.16525 11.015C5.3422 11.2391 6.38164 10.3959 6.42921 9.42288C7.52861 9.42288 8.00956 8.98821 8.18943 7.97744L8.60455 8.01133C8.72707 9.09965 8.22331 10.1326 6.91146 10.0094C6.87758 11.3089 5.61656 12.0355 4.44026 11.5865C3.89089 12.6181 2.63247 13.0306 1.57609 12.0238C0.555542 11.0515 0.928309 9.38639 2.26232 8.98299C2.29295 7.70894 3.23398 6.49875 5.06197 6.96536C5.06197 6.96536 5.29723 6.39644 5.86941 6.36255C5.48818 6.20614 5.19948 5.99565 5.12062 5.60334C3.74165 5.89725 2.57056 4.62776 2.88403 3.3498C1.63995 2.69485 1.61975 1.46576 2.2369 0.73522C2.88012 -0.0253009 3.95149 -0.193437 4.91013 0.626388C6.53348 -0.272943 8.36864 0.828408 8.25655 2.6779C9.39179 2.60231 10.0813 3.59483 9.95485 4.62841C10.1419 4.17288 10.3609 3.96173 10.7805 3.87049L11.3429 4.11553Z" fill="#1E1E1E"/>
<path fill-rule="evenodd" clip-rule="evenodd" d="M14.1335 1.89648L14.4078 2.09264C13.8754 3.21616 12.9331 4.4094 12.1263 5.06565L11.818 4.83364C12.3902 3.90303 13.618 2.367 14.1335 1.89648ZM6.1907 8.06733L6.37578 8.34169C5.70324 9.03117 4.45851 9.95071 3.7977 10.27L3.53963 9.98981C4.17894 9.30032 5.4002 8.39773 6.1907 8.06733ZM7.79907 4.72872L7.47453 5.13016C6.5941 4.55277 4.85669 3.00044 4.46503 2.44064L4.73874 2.16107C5.58007 2.58727 7.22167 4.05097 7.79907 4.72872ZM6.16594 19.4595C6.2663 19.9633 6.18223 20.5211 6.63645 21.0659C6.79677 21.2569 7.6785 22.4175 8.31781 23.0171C7.44911 23.3592 5.71171 24.0656 4.46112 24.2227C4.21087 24.2546 3.92934 24.4299 3.69343 24.5648C3.53702 24.832 3.3754 25.3097 3.30763 25.8493C3.2594 26.2351 3.26592 26.6639 3.26592 27.1019C3.26592 27.4877 3.4699 28.7004 3.90132 29.5151C4.33339 30.3297 4.74786 30.694 5.25813 30.9318C5.35914 30.8875 5.58137 30.8543 5.92807 30.8465C6.87237 30.825 7.61138 31.347 7.93723 31.7947C8.0617 31.9667 8.31195 32.0006 8.64105 32.0006C9.40287 32.0006 10.2409 31.7497 11.0367 31.4467C11.2067 31.3066 11.6864 30.9872 12.1576 30.6171C12.6281 30.2482 15.2511 28.0233 16.4118 27.4616C17.0231 27.7926 18.0267 28.2188 19.0629 28.2188C19.1228 28.2188 19.3222 28.2215 19.534 28.1745C19.8579 28.1009 20.273 27.9569 20.795 27.8539C21.7302 27.6721 22.827 27.5118 23.147 27.5163C24.0072 27.53 26.5286 27.5952 27.1262 27.5952C27.7531 27.5952 28.6472 27.5404 28.9887 27.5072C29.5166 27.3326 30.6929 27.0067 31.8197 26.4867C32.9438 25.9888 35.3108 24.3459 35.6979 23.9705C35.8862 23.8024 36.053 23.6179 36.1762 23.4537C36.2225 23.3898 36.2394 23.3644 36.2394 23.3136L36.2264 21.6537C36.2264 21.6537 36.7921 21.0262 37.0084 20.8085C37.0293 20.7883 37.0306 20.759 37.0273 20.7388C36.9302 20.4168 36.8331 19.4152 36.8885 18.3992L36.3157 18.132C36.2898 19.1992 35.9732 20.239 35.4 21.1396C34.5483 21.2745 32.923 21.7782 32.3378 22.4442L32.6597 22.5361C33.2091 22.2331 33.7975 22.0206 34.4701 22.0206C35.0644 22.0206 35.3264 22.177 35.3264 22.3439C35.3264 22.4612 35.2143 22.7421 35.1713 22.8313C35.1198 22.933 35.0859 23.0627 34.9862 23.1709C34.174 24.0621 33.2223 24.8153 32.1683 25.4009C31.4215 25.8187 30.717 26.0996 29.6157 26.4117C29.2859 26.5049 28.8336 26.6385 28.5397 26.7402C28.1246 26.7271 25.9558 26.6639 24.6889 26.6639C23.4227 26.6639 20.8107 26.8483 19.9804 27.0582C19.6038 27.1533 19.5099 27.3052 19.072 27.3052C18.2541 27.3052 17.1808 26.8901 16.5219 26.5707C16.4268 26.5988 16.1883 26.7043 15.9504 26.8229C15.4825 27.0556 14.4424 28.4991 13.8376 28.0624C13.5287 28.6952 12.1954 29.2948 11.7392 29.951C11.7894 29.6076 12.3277 27.3788 12.3785 26.9331C12.3876 26.8542 12.3941 26.7903 12.3439 26.7063C11.8571 25.893 10.4964 25.3762 9.72937 25.2263C9.50389 25.182 9.3931 25.1513 9.24191 25.1168L8.03172 24.7512L6.90886 25.1168L8.20442 25.3651L6.56021 26.4547C6.84565 26.3452 8.61759 25.8539 8.74858 25.8148C8.89325 25.7718 9.0868 25.7294 9.29795 25.803C9.53908 25.8871 10.2227 26.0435 10.6294 26.1849C10.8685 26.2677 11.2602 26.7069 11.3612 26.9409C11.4023 27.0386 11.4179 27.2439 11.4446 27.6982C11.4609 27.9842 11.3879 28.3818 11.3188 28.6907C11.1377 29.4988 10.7701 30.1303 10.6541 30.3557C10.4938 30.6666 10.2722 30.767 10.0539 30.8699C9.69548 31.0381 9.25755 31.1436 8.77074 31.1501C8.43642 31.1541 8.21289 31.1365 8.07017 30.9429C7.62116 30.3368 6.51198 29.749 5.37935 29.968C4.68465 29.5476 3.99581 28.1908 3.99581 27.1103C3.99581 26.4625 4.32296 25.4414 4.49892 24.9285C5.63025 24.7773 7.89291 23.9151 8.99361 23.4152C9.22431 23.4035 9.8571 23.18 10.4619 23.18C11.9419 23.18 13.4101 24.4742 14.3016 25.3488C14.4476 25.1083 14.722 24.744 15.4786 24.744C16.5265 24.744 17.126 25.6962 17.4265 26.6763L17.9726 26.2794C17.8637 25.6702 17.575 25.1076 17.1436 24.6639C16.7819 24.3022 16.0931 24.0018 15.5542 24.0018C15.2303 24.0018 14.8934 24.0741 14.6809 24.0741C13.9321 24.0741 13.6271 23.7404 13.0745 23.3599C12.4775 22.9473 11.3671 22.3491 10.5746 22.3491C10.0643 22.3491 9.83494 22.5492 9.41395 22.5505C8.79485 22.5544 8.5648 22.297 8.26828 21.9281C8.1386 21.7665 7.51167 21.2099 7.34419 20.9864C7.24774 20.858 7.077 20.3321 7.01509 20.0688L6.16594 19.4595Z" fill="#1E1E1E"/>
<path fill-rule="evenodd" clip-rule="evenodd" d="M7.01581 20.0691C7.19568 20.2613 7.36903 20.4738 7.59386 20.6458C7.81088 20.81 8.08524 20.9528 8.34265 21.0987C8.7063 21.3047 9.11882 21.5406 9.52808 21.6703C9.88651 21.7785 10.3518 21.8228 10.7884 21.8228C11.4108 21.8228 12.1453 21.6944 12.7533 21.9779C13.1612 22.1688 13.1886 22.5989 13.5125 22.7247C14.0169 22.9209 15.4187 22.9665 16.1955 22.9665C17.7341 22.9665 19.3986 22.7716 20.382 22.5364L19.9023 22.0079C19.2219 22.116 17.2252 22.3337 16.3089 22.3337C15.0179 22.3337 13.7986 22.1278 13.7986 21.5927C13.7986 21.2239 14.1961 20.6901 14.9527 20.6901C15.7654 20.6901 16.9938 21.1815 17.2206 21.2486C17.4481 21.3164 17.5406 21.2982 17.6833 21.2323L18.159 20.9867C17.5276 20.6927 15.3294 19.9368 14.5637 19.9368C14.2013 19.9368 14.0052 19.9889 13.7699 20.292C13.476 20.6699 12.6914 21.0147 11.4382 21.0147C10.7513 21.0147 9.76855 20.8922 9.55284 20.8035C9.17551 20.6484 8.4365 20.2196 7.96402 19.8781C7.35469 19.4389 6.82422 18.9514 6.45927 18.3825C6.3539 18.2195 6.2984 18.0292 6.29961 17.8351C6.30091 17.6872 6.34262 17.5497 6.35761 17.4408C6.46644 17.592 6.5844 17.7015 6.73494 17.8429C7.3964 18.4868 8.37263 18.9703 9.37623 19.1626C9.66232 19.2173 9.91648 19.2603 10.1993 19.2603C10.6275 19.2603 11.0231 19.0309 11.2746 18.8061L10.8803 18.348C10.7533 18.3864 10.49 18.3864 10.3166 18.3864C8.85944 18.3864 7.00995 17.433 6.5844 16.331C6.54204 16.2228 6.49121 16.1629 6.53357 16.0625C6.57593 15.9608 6.62871 15.7464 6.65934 15.549C6.74471 15.6467 6.92067 15.7947 7.1442 15.9387C7.68575 16.286 8.71868 16.767 8.9207 16.8934C9.4414 16.7435 9.83307 16.5689 10.1426 16.4085C10.512 16.2146 10.9225 16.112 11.3398 16.1094C12.4046 16.1094 13.6285 16.7168 14.7781 17.2831L15.5627 16.9736C14.5428 16.2567 12.3232 15.2531 11.0895 15.2531C10.3616 15.2531 9.67731 15.7855 9.18985 15.7855C8.5916 15.7855 6.87766 14.9501 6.87766 14.2534C6.87766 13.7177 7.98683 13.414 9.7705 13.1944C9.46016 13.6531 9.16819 14.124 8.89529 14.606L9.34951 14.8582C12.1433 10.8125 15.0492 8.18553 17.4937 6.58499C18.3813 6.00303 18.5839 5.6635 18.8941 5.02875C19.6514 3.48099 20.3657 2.29101 21.6078 2.29101C22.1878 2.29101 22.6616 2.6162 22.9868 3.02025L23.8861 3.28875L22.9757 3.90524L23.9063 4.27475C22.6922 4.61558 21.033 5.79644 20.3618 7.52928C19.0675 7.59836 18.4432 8.64563 18.0202 9.52345C17.7348 10.1152 17.2812 10.3518 16.6198 10.7995L11.3293 14.4874L12.0573 14.5877L16.9449 11.3149C17.9088 10.6646 18.3676 10.1849 18.5983 9.72287C19.0519 8.81637 19.54 8.14252 20.4986 8.14252C20.9698 8.14252 21.4742 8.34454 21.8776 8.72513L22.7346 9.00536L21.7987 9.57754L22.5834 10.0591C20.3416 10.7617 18.9515 12.3681 18.1441 15.4395L18.739 15.5744C19.0369 14.5571 19.3301 13.6245 19.8554 12.8014C21.1549 12.7865 22.47 12.7389 23.761 12.7389C27.2058 12.7389 30.0654 12.8842 31.6086 13.3384L31.0625 12.3902C29.4111 12.11 27.0155 11.9647 23.761 11.9647C22.6694 11.9647 21.5641 12.0051 20.466 12.0168C21.1744 11.2667 22.195 10.6359 23.7662 10.1484L22.6511 9.53453L23.8893 8.84765L22.2021 8.22008C21.9069 7.95484 21.54 7.71176 21.0786 7.59576C21.6182 5.93526 23.4592 4.96489 25.2234 4.29626L23.9877 3.7925L25.2344 3.11018L23.3152 2.49759C22.8141 1.90912 22.3312 1.64062 21.5908 1.64062C19.8111 1.64062 19.0629 3.18643 18.3572 4.55628C17.9857 5.2777 17.7504 5.58139 17.1189 5.99521C15.7504 6.89063 14.0052 8.25983 12.3395 10.0135C11.4688 9.38595 9.691 7.55144 9.20744 6.55045C9.01715 6.78571 8.82881 7.29859 8.82881 7.29859C9.01064 7.49084 11.1058 9.60687 11.8839 10.5036L11.708 10.7004C10.8784 10.8653 8.72194 11.0725 7.98814 10.9728L7.57627 11.704C8.12434 11.6499 10.2664 11.3977 11.1553 11.3456C10.8829 11.6756 10.6191 12.0126 10.3642 12.3563C7.60885 12.6692 5.76913 13.2342 5.76913 14.2521C5.76913 14.4196 5.83626 14.6099 5.83626 14.7897C5.83626 15.216 5.67725 15.3724 5.37421 15.5633C5.17675 15.6871 5.16437 15.7738 5.24843 15.8911C5.33315 16.0104 5.75806 16.6386 5.75806 16.7624C5.75806 16.9657 5.55538 17.171 5.39181 17.3528C5.24843 17.5132 5.2543 17.5555 5.36639 17.7575L6.16536 19.4552L7.01581 20.0691ZM41.1265 10.6183C40.9506 10.8034 40.7955 11.0008 40.6651 11.2107L40.2213 10.5877C41.7033 8.61304 45.6167 7.68634 47.9126 7.52342V6.46443C47.6212 6.55436 47.3071 6.65537 47.0165 6.72445C46.6046 6.8235 46.2266 6.9154 45.906 6.90692C45.5854 6.8991 45.3254 6.77072 45.2054 6.59933C44.8972 6.15944 45.1833 5.49471 46.1921 4.873L45.3964 4.21154C44.7825 5.0079 44.1777 5.88638 43.5625 6.41099C43.0034 6.88802 42.4175 7.12589 41.9444 6.77268C41.6896 6.58238 41.5938 6.4957 41.5684 5.99912C41.6022 5.26988 42.0461 4.15549 42.4371 3.43798L41.4954 3.32719C41.3279 4.42594 40.8776 5.36307 40.3953 6.13597C39.7945 7.10047 39.0196 7.77693 38.2219 8.33086L37.6986 7.81538C38.3425 7.43544 39.1486 6.81764 39.7032 5.96588C40.3464 4.97662 40.8685 3.7534 40.8691 2.64227L43.5932 2.90034C43.2106 3.3865 42.5791 4.49567 42.3393 5.29204C42.2148 5.70781 42.2207 6.03822 42.3712 6.15096C42.6599 6.36732 43.1657 6.02193 43.6564 5.49602C44.3485 4.75244 45.0262 3.63088 45.3253 3.23074L47.2954 4.86518C46.4195 5.32918 45.571 5.85901 45.7398 6.15683C45.8943 6.42793 46.4554 6.34647 47.0699 6.15813C47.5789 6.00096 48.0689 5.78786 48.531 5.52274V8.18554C47.5815 8.1725 45.9731 8.34976 44.4241 8.81963C44.7923 9.33968 45.85 9.53062 46.5219 9.62316L46.1849 11.7842C44.4892 11.0719 43.1813 10.6574 41.1265 10.6183L41.8062 10.0344C43.3208 10.0657 44.8385 10.5055 45.6988 10.9383L45.8219 10.1204C45.0471 10.0181 44.0709 9.57754 43.6577 9.07835C42.9832 9.33185 42.3445 9.64792 41.8062 10.0344L41.1265 10.6183Z" fill="#1E1E1E"/>
<path fill-rule="evenodd" clip-rule="evenodd" d="M33.0076 17.4831L33.6385 16.1211C32.8968 15.2435 32.2182 14.3145 31.6078 13.341L31.0617 12.3928C29.8 9.99652 30.2594 8.85151 29.5863 7.79707C29.0297 6.92577 26.3265 7.46797 25.8781 7.56181L26.6602 6.26691L25.1189 6.38942L26.4249 4.83775C26.5676 4.63573 26.6348 4.4513 26.7859 3.91301C27.0166 3.09514 27.7192 1.69922 29.7765 1.69922C32.0601 1.69922 32.7678 3.54676 33.7636 4.34964C35.1232 5.4478 36.4351 6.60365 37.6959 7.81402L38.2192 8.3295C38.8937 9.01899 39.5838 9.72803 40.2199 10.5863L40.6637 11.2093C43.4125 15.2224 46.828 22.8934 48.3379 26.4067C48.4839 26.7462 48.5882 27.0916 48.6788 27.3536C47.539 26.7187 46.4315 26.0275 45.3604 25.2825L44.6826 24.8055C44.2574 24.4991 43.837 24.186 43.4216 23.8664L42.725 23.319C42.3058 22.9837 41.8928 22.6408 41.4861 22.2906L42.8605 30.2953C42.9615 30.7665 43.3643 30.6889 43.6894 30.2738C44.0146 29.8587 44.1378 29.7453 44.0146 29.1972L42.725 23.319L43.4216 23.8664L44.6579 28.861C44.7778 29.3113 44.9681 29.454 45.4946 29.4768C46.0218 29.4996 46.1339 29.2976 46.0218 28.9509L44.6833 24.8055L45.361 25.2825L46.6279 29.0056C46.9531 29.9591 46.6279 30.0711 46.0564 30.0711C45.4849 30.0711 44.9694 29.9362 44.6553 30.1389C44.3418 30.3403 43.9482 30.891 43.4777 31.3739C43.0619 31.7988 42.4578 31.688 42.3346 30.8903L40.8155 21.7002C39.839 20.8268 38.913 19.8986 38.0419 18.9201C37.6537 18.753 37.2685 18.5789 36.8865 18.3981L36.3136 18.1309C36.1784 18.0659 36.0406 18.0066 35.9005 17.953C35.4801 18.4581 35.0767 19.0211 34.6062 19.4245C34.356 19.6396 34.1852 19.7621 33.8157 19.7621C33.7017 19.7621 33.5603 19.7608 33.4286 19.6858C33.2878 19.607 33.1556 19.448 33.0083 19.2238C32.8968 19.053 32.732 18.8354 32.5879 18.5936C32.2875 18.0898 31.9636 17.4571 31.6717 16.9455C31.3445 16.37 31.063 15.9412 31.0245 15.8702C30.9659 15.7607 30.8062 15.6258 30.8062 15.6258C30.6459 15.8871 30.5279 16.3909 30.5279 16.6685L29.9564 16.475C30.032 16.097 30.1839 15.6089 30.2673 15.3736C30.2673 15.1716 30.0405 14.9024 29.8554 14.9024C29.5947 14.9024 29.3262 15.1885 29.1913 15.7353L28.6113 15.9875C28.6791 15.1045 28.9808 14.138 29.8554 14.138C30.5618 14.138 30.9991 14.6763 31.3354 15.1807C31.671 15.6838 32.773 17.1892 33.0076 17.4831L33.4449 18.0371C33.5212 18.3831 33.6678 18.5832 33.7388 18.694C33.8907 18.9292 34.0588 18.9129 34.2856 18.7018C34.3892 18.6066 34.7222 18.3355 35.0448 17.9993C35.325 17.7067 35.5974 17.3515 35.7069 17.1716C36.0275 17.3156 36.6251 17.6017 37.1061 17.8129C35.0422 15.27 33.0663 12.1836 32.2093 10.0845C31.8548 9.21711 32.5475 8.92645 32.8818 9.78147C33.7903 12.1021 36.4466 16.2052 38.3971 18.3564C40.6519 20.8445 44.7869 24.4445 47.4771 25.8906C47.0874 25.1294 46.5719 24.0372 45.9775 22.7709C42.7054 20.9201 39.3981 17.5216 37.8568 14.602L38.5346 14.6802C39.9696 17.2172 43.3962 20.6015 45.421 21.5855C43.5702 17.6578 41.1609 12.6795 39.2808 10.5381C36.9484 7.88245 34.4016 5.82832 33.1849 4.75955C31.9858 3.70577 31.4918 2.38349 29.7655 2.38349C28.3415 2.38349 27.5934 3.4086 27.3079 4.44348C27.2486 4.6455 27.2154 4.77128 27.0727 4.98113L26.4001 5.78857L27.8541 5.61196L27.0127 6.78891C27.0127 6.78891 29.2923 6.27734 30.0907 7.36044C30.9496 8.52827 30.395 9.83947 31.8053 12.3882C32.4257 13.5085 33.9258 15.5228 34.4276 15.9699L33.4443 18.0371L33.0076 17.4831ZM10.6026 17.8357L10.2578 17.6017C10.5474 17.3694 10.8667 17.1768 11.2073 17.0289C11.3906 16.9538 11.586 16.9127 11.7841 16.9077C12.1705 16.9077 12.5035 17.0693 12.8287 17.2427C13.3429 17.5164 13.9203 17.8383 14.3628 17.8383C14.5309 17.8383 14.6939 17.7985 14.8842 17.7985C15.3221 17.7985 15.7424 17.9947 15.9829 17.9947C16.1289 17.9947 16.2299 17.8637 16.3257 17.7262C16.5668 17.3789 16.8998 17.1214 17.3254 16.9435C17.7822 16.7526 18.3316 16.6763 18.9292 16.6763C19.3997 16.6763 19.8513 16.7441 20.0866 16.7949C20.0866 16.7949 19.7275 17.2277 19.6376 17.3235C19.1625 17.3235 18.2573 17.3072 17.676 17.5424C17.3189 17.6865 17.1911 17.8937 17.1911 18.1902C17.1911 18.6177 17.6695 18.7859 18.2026 18.9475C18.5167 19.0426 18.8692 19.0661 19.1664 19.0661C19.5326 19.0661 20.2345 18.9286 20.9279 18.7761C21.7653 18.5917 22.5435 18.3714 22.7709 18.2873L23.0733 18.8308C22.1414 19.1462 21.1886 19.4454 20.3042 19.6252C19.8044 19.7269 19.328 19.7895 18.9031 19.7895C18.1934 19.7895 17.4231 19.4916 16.7897 19.1899C16.2553 18.9351 15.7789 18.6835 15.3527 18.6835C14.8737 18.6835 14.4234 18.8491 13.9796 19.1026C13.7626 19.227 13.1076 19.678 12.5244 19.9068C12.0767 20.0847 11.7117 20.1831 11.2582 20.1831C10.8541 20.1831 10.613 20.1257 10.4038 19.9628L11.1063 19.5327C11.1969 19.622 11.3592 19.6383 11.4595 19.6383C11.5605 19.6383 11.6811 19.6252 11.9568 19.5112C12.1145 19.4447 12.3439 19.3039 12.4781 19.2173C12.7557 19.0381 12.8476 18.9331 12.9571 18.8471C13.1696 18.679 13.2478 18.4561 12.9767 18.2143C12.8439 18.0891 12.6995 17.9769 12.5452 17.8794C12.3022 17.734 12.1269 17.592 11.6876 17.592C11.1689 17.59 10.8033 17.7327 10.6026 17.8357Z" fill="#1E1E1E"/>
<path fill-rule="evenodd" clip-rule="evenodd" d="M20.3908 18.1147C20.3908 18.1147 19.973 17.9987 19.8271 17.9876C20.09 17.6388 20.4081 17.3353 20.7687 17.0889C21.339 16.7031 21.9359 16.492 22.8392 16.4372C23.0848 16.4222 23.5853 16.3747 23.8649 16.3864C24.1171 16.3981 24.5433 16.4144 24.9356 16.4867C25.2133 16.5389 25.472 16.6164 25.687 16.6497C25.818 16.6699 26.2736 16.6634 26.4319 16.6379C27.0712 16.5376 27.8389 16.2906 28.243 16.0703L28.4111 16.6849C27.5476 17.1254 26.572 17.5503 25.6792 17.5503C25.2243 17.5503 24.7414 17.5158 24.2911 17.474C23.4974 17.3978 22.8105 17.2922 22.5739 17.2922C21.9314 17.2922 21.0066 17.5914 20.3908 18.1147ZM19.7534 21.5321L18.9414 21.1607C20.0675 20.5904 21.788 20.0189 22.4938 19.9055C23.2002 19.7947 24.0076 19.7093 24.4723 19.5529C24.6854 20.0912 25.1064 20.6667 25.7118 20.6667C25.9327 20.6667 26.2957 20.4998 26.6607 20.3382C27.0706 20.1577 27.4824 19.9602 27.6955 19.8644C27.9262 19.7628 28.6744 19.4343 29.3085 19.1515C29.6257 19.0073 29.941 18.8587 30.2541 18.7057L30.6803 18.9364C30.5525 19.4962 30.3394 20.1851 30.0996 20.6778C30.0058 20.8713 29.9119 21.0303 29.8109 21.145C29.6258 21.3536 29.3267 21.6312 28.9364 21.9075C28.5102 22.2105 27.9908 22.5207 27.4394 22.8368C27.01 23.0851 26.5779 23.336 26.14 23.5367L25.9125 23.1242C26.5877 22.7423 27.2739 22.2587 27.8774 21.8117C28.1628 21.6005 28.4391 21.3868 28.6366 21.2056C28.7832 21.072 28.8751 20.9612 28.9481 20.8531C29.1273 20.5898 29.4193 20.0743 29.5085 19.8273C29.257 19.9505 28.3042 20.4001 27.878 20.623C27.3971 20.8765 26.617 21.2734 26.1797 21.4806C25.8356 21.6423 25.5287 21.7315 25.3084 21.7315C24.8203 21.7315 24.5987 21.3803 24.4788 21.1678C24.1706 20.6178 23.8402 20.567 22.9708 20.5559C21.962 20.5435 20.5778 20.9606 19.7534 21.5321ZM24.4925 18.997C24.4925 18.997 24.3745 18.5174 24.3185 18.3428C24.3185 18.3428 24.4586 18.2971 24.6437 18.2971C24.9461 18.2971 25.6936 18.3812 26.0038 18.3812C27.1716 18.3812 27.6024 18.0136 27.9451 17.7041C28.2377 17.4408 28.5382 17.2258 29.3326 17.2258C30.0332 17.2258 30.8373 17.5086 31.0674 17.62L31.0172 18.258C30.6389 18.0558 30.2177 17.9468 29.7888 17.94C29.4994 17.94 29.2387 17.9628 29.055 18.0586C28.8484 18.1655 28.7226 18.3258 28.5284 18.4848C28.3225 18.6543 28.0403 18.8185 27.6708 18.9547C27.3013 19.0909 26.8438 19.1841 26.1615 19.1841C25.2608 19.1828 24.7727 19.0322 24.4925 18.997Z" fill="#1E1E1E"/>
<path fill-rule="evenodd" clip-rule="evenodd" d="M17.0977 23.8124L17.636 23.5895C18.1293 23.7805 18.8422 23.9968 19.3382 23.9968C19.6366 23.9968 19.883 23.8899 20.0856 23.7994C20.2447 23.7283 22.0381 22.8485 22.9283 22.5253C23.2112 22.4236 23.4985 22.3663 23.638 22.3663C23.8511 22.3663 23.8635 22.4614 23.9234 22.5598C24.0916 22.8283 25.4158 24.7182 25.5501 24.8636C26.6729 24.5188 27.8232 24.0131 28.4866 23.3771C29.178 22.7104 29.7522 21.9388 30.3067 21.3418C30.5205 21.1111 30.7851 20.9026 30.9161 20.8329C31.4902 20.5272 33.2758 20.5018 34.0266 20.535L33.5815 21.1652C32.2585 21.1652 31.5182 21.3014 31.1852 21.5523C31.0444 21.6579 30.832 21.8717 30.6293 22.1356C30.1777 22.7247 29.6844 23.5309 29.4869 23.6886C29.874 23.9571 30.2976 24.1923 30.9695 24.1923C32.0904 24.1923 32.8933 23.4911 33.3332 23.0949L33.7099 23.3191C33.4316 23.6807 33.1129 24.0509 32.7069 24.3272C32.2566 24.6329 31.689 24.831 31.3534 24.9242C30.703 24.801 29.2706 24.5116 28.9349 24.4445C27.6961 24.9496 25.6784 25.7655 25.0007 25.9695C24.8508 26.0069 24.698 26.0311 24.5439 26.0418C24.0082 26.0711 23.2633 26.0672 22.5849 26.0594C22.1033 26.0529 21.6477 26.0555 21.419 26.0138L20.8214 25.3901C21.3486 25.4905 21.5539 25.5211 22.0466 25.5211C23.2125 25.5211 23.9625 25.3263 24.2102 25.2631C24.4181 25.2096 24.4526 25.0897 24.3907 24.9014C24.2923 24.6022 24.1196 24.3181 23.857 24.0144C23.6776 23.819 23.4806 23.6406 23.2685 23.4813C23.1082 23.3718 22.9518 23.3438 22.5119 23.4944C22.1039 23.6332 20.8384 24.3181 20.2929 24.6081C20.0231 24.7521 19.8132 24.7938 19.329 24.6791C18.8162 24.5586 17.5897 24.1102 17.0977 23.8124ZM20.607 9.76654C20.7289 9.76654 20.8457 9.71813 20.9319 9.63197C21.018 9.54581 21.0664 9.42895 21.0664 9.3071C21.0664 9.18525 21.018 9.06839 20.9319 8.98222C20.8457 8.89606 20.7289 8.84766 20.607 8.84766C20.4852 8.84766 20.3683 8.89606 20.2821 8.98222C20.196 9.06839 20.1476 9.18525 20.1476 9.3071C20.1476 9.42895 20.196 9.54581 20.2821 9.63197C20.3683 9.71813 20.4852 9.76654 20.607 9.76654Z" fill="#1E1E1E"/>
</svg>
