<svg width="122" height="32" viewBox="0 0 122 32" fill="none" xmlns="http://www.w3.org/2000/svg">
<path d="M17.4045 29.9374C15.5803 30.2502 13.7241 30.3439 11.8039 30.5937L5.94703 13.8438V31.3126C4.12288 31.5 2.45871 31.75 0.730469 32V0H5.59521L12.2519 18.1565V0H17.4045V29.9374ZM27.4858 11.7188C29.4702 11.7188 32.5105 11.625 34.3347 11.625V16.6249C32.0623 16.6249 29.4061 16.6249 27.4858 16.7186V24.1563C30.4943 23.9688 33.5027 23.7186 36.5429 23.6248V28.4371L22.365 29.531V0H36.5429V5.00001H27.4858V11.7188ZM55.5852 5.00012H50.2726V28.0001C48.5444 28.0001 46.8162 28.0001 45.1522 28.0624V5.00012H39.8396V0H55.5855L55.5852 5.00012ZM63.9062 11.3751H70.9152V16.375H63.9062V27.7189H58.8812V0H73.1875V5.00001H63.9062V11.3751ZM81.5084 23.3437C84.4209 23.4061 87.3651 23.6252 90.2136 23.7812V28.7187C85.6371 28.4373 81.0604 28.1564 76.3879 28.0624V0H81.5084V23.3437ZM94.534 29.0625C96.1662 29.1564 97.8945 29.2502 99.5586 29.4374V0H94.534V29.0625ZM121.994 0L115.497 15.2188L121.994 32C120.073 31.75 118.153 31.4062 116.233 31.0937L112.552 21.8439L108.808 30.3439C106.952 30.0311 105.159 29.9374 103.304 29.6874L109.896 15.0311L103.943 0H109.448L112.808 8.40627L116.393 0H121.994Z" fill="#1E1E1E"/>
</svg>
