<svg width="52" height="52" viewBox="0 0 52 52" fill="none" xmlns="http://www.w3.org/2000/svg">
<path d="M31.3329 23.3325H45.9994C48.2085 23.3325 49.9993 21.5417 49.9993 19.3326V16.666C49.9993 14.4569 48.2085 12.666 45.9994 12.666H5.99995C3.79084 12.666 2 14.4569 2 16.666V19.3326C2 21.5417 3.79084 23.3325 5.99995 23.3325H20.6664" stroke="url(#paint0_linear_32_215)" stroke-width="4" stroke-linecap="round" stroke-linejoin="round"/>
<path d="M47.3302 23.334V44.667C47.3302 47.6125 44.9424 50.0003 41.9969 50.0003H9.99732C7.05184 50.0003 4.66406 47.6125 4.66406 44.667V23.334" stroke="url(#paint1_linear_32_215)" stroke-width="4" stroke-linecap="round" stroke-linejoin="round"/>
<path fill-rule="evenodd" clip-rule="evenodd" d="M20.6692 2V2C23.6147 2 26.0025 4.38778 26.0025 7.33326V12.6665H20.6692C17.7237 12.6665 15.3359 10.2787 15.3359 7.33326V7.33326C15.3359 4.38778 17.7237 2 20.6692 2Z" stroke="url(#paint2_linear_32_215)" stroke-width="4" stroke-linecap="round" stroke-linejoin="round"/>
<path fill-rule="evenodd" clip-rule="evenodd" d="M31.3333 2V2C34.2787 2 36.6665 4.38778 36.6665 7.33326V7.33326C36.6665 10.2787 34.2787 12.6665 31.3333 12.6665H26V7.33326C26 4.38778 28.3878 2 31.3333 2Z" stroke="url(#paint3_linear_32_215)" stroke-width="4" stroke-linecap="round" stroke-linejoin="round"/>
<rect x="20.668" y="12.666" width="10.6665" height="37.3328" rx="1" stroke="url(#paint4_linear_32_215)" stroke-width="4" stroke-linecap="round" stroke-linejoin="round"/>
<defs>
<linearGradient id="paint0_linear_32_215" x1="22.7832" y1="30.3724" x2="48.8366" y2="-2.50312" gradientUnits="userSpaceOnUse">
<stop stop-color="#7277F1"/>
<stop offset="0.9999" stop-color="#ED71AD"/>
<stop offset="1" stop-color="#ED71AD"/>
</linearGradient>
<linearGradient id="paint1_linear_32_215" x1="23.138" y1="67.6001" x2="73.1119" y2="45.1788" gradientUnits="userSpaceOnUse">
<stop stop-color="#7277F1"/>
<stop offset="0.9999" stop-color="#ED71AD"/>
<stop offset="1" stop-color="#ED71AD"/>
</linearGradient>
<linearGradient id="paint2_linear_32_215" x1="19.9544" y1="19.7064" x2="33.8687" y2="15.8047" gradientUnits="userSpaceOnUse">
<stop stop-color="#7277F1"/>
<stop offset="0.9999" stop-color="#ED71AD"/>
<stop offset="1" stop-color="#ED71AD"/>
</linearGradient>
<linearGradient id="paint3_linear_32_215" x1="30.6185" y1="19.7064" x2="44.5327" y2="15.8047" gradientUnits="userSpaceOnUse">
<stop stop-color="#7277F1"/>
<stop offset="0.9999" stop-color="#ED71AD"/>
<stop offset="1" stop-color="#ED71AD"/>
</linearGradient>
<linearGradient id="paint4_linear_32_215" x1="25.2865" y1="74.6385" x2="40.1991" y2="73.4437" gradientUnits="userSpaceOnUse">
<stop stop-color="#7277F1"/>
<stop offset="0.9999" stop-color="#ED71AD"/>
<stop offset="1" stop-color="#ED71AD"/>
</linearGradient>
</defs>
</svg>
