<svg width="48" height="48" viewBox="0 0 48 48" fill="none" xmlns="http://www.w3.org/2000/svg">
<mask id="mask0_32_1221" style="mask-type:alpha" maskUnits="userSpaceOnUse" x="0" y="0" width="48" height="48">
<path fill-rule="evenodd" clip-rule="evenodd" d="M12.9255 25.5C7.6589 25.5 3.39152 29.7692 3.39152 35.034C3.39152 36.4752 3.71054 37.8393 4.27987 39.0634C4.41621 39.3566 4.45418 39.6859 4.38815 40.0024L3.43821 44.5549L7.97889 43.5905C8.29621 43.5231 8.62683 43.5604 8.92117 43.6968C10.09 44.2384 11.3851 44.552 12.7552 44.5776C12.8111 44.5712 12.8679 44.568 12.9255 44.568C18.1901 44.568 22.4595 40.2986 22.4595 35.034C22.4595 29.7692 18.1921 25.5 12.9255 25.5ZM13.1349 47.5663C19.9598 47.4545 25.4595 41.8855 25.4595 35.034C25.4595 28.1128 19.8494 22.5 12.9255 22.5C6.00165 22.5 0.391526 28.1128 0.391526 35.034C0.391526 36.7416 0.733974 38.3725 1.35326 39.8599L0.0316523 46.1936C-0.0718896 46.6898 0.0821879 47.2047 0.441261 47.5625C0.800333 47.9203 1.31582 48.0726 1.81166 47.9673L8.13045 46.6252C9.61195 47.2394 11.2351 47.5792 12.9368 47.5792C13.0039 47.5792 13.07 47.5748 13.1349 47.5663Z" fill="white"/>
<path fill-rule="evenodd" clip-rule="evenodd" d="M28.5 3C19.2749 3 12 9.72176 12 17.79C12 19.7852 12.442 21.6804 13.2399 23.4163C13.5859 24.169 13.2562 25.0597 12.5035 25.4057C11.7507 25.7516 10.8601 25.4219 10.5141 24.6692C9.54347 22.5576 9 20.2363 9 17.79C9 7.78173 17.9161 0 28.5 0C39.0839 0 48 7.78173 48 17.79C48 23.413 45.1488 28.3456 40.8028 31.5727C40.8031 32.3799 40.8023 33.2858 40.8015 34.2502C40.8008 35.1905 40.8 36.1865 40.8 37.2007C40.8 37.719 40.5325 38.2005 40.0924 38.4743C39.6524 38.7481 39.1022 38.7754 38.6372 38.5464L32.0169 35.2857C30.8762 35.4769 29.7016 35.58 28.5 35.58C26.7701 35.58 25.1065 35.3561 23.5238 34.976C22.7182 34.7826 22.222 33.9728 22.4155 33.1673C22.6089 32.3617 23.4187 31.8655 24.2242 32.0589C25.6025 32.3899 27.0304 32.58 28.5 32.58C29.6815 32.58 30.8356 32.4637 31.9547 32.2491C32.2753 32.1876 32.6072 32.2324 32.9 32.3766L37.8011 34.7905C37.8013 34.6055 37.8014 34.4225 37.8016 34.2416C37.8026 32.9587 37.8035 31.7827 37.8022 30.8015C37.8016 30.3043 38.0473 29.839 38.4584 29.5593C42.4617 26.8354 45 22.5714 45 17.79C45 9.72176 37.7251 3 28.5 3Z" fill="white"/>
<path fill-rule="evenodd" clip-rule="evenodd" d="M6.57385 34.109C7.20357 33.4793 8.22455 33.4793 8.85427 34.109C9.48399 34.7387 9.48399 35.7597 8.85427 36.3894C8.22455 37.0191 7.20357 37.0191 6.57385 36.3894C5.94413 35.7597 5.94413 34.7387 6.57385 34.109Z" fill="white"/>
<path fill-rule="evenodd" clip-rule="evenodd" d="M11.6364 34.109C12.2661 33.4793 13.2871 33.4793 13.9168 34.109C14.5465 34.7387 14.5465 35.7597 13.9168 36.3894C13.2871 37.0191 12.2661 37.0191 11.6364 36.3894C11.0066 35.7597 11.0066 34.7387 11.6364 34.109Z" fill="white"/>
<path fill-rule="evenodd" clip-rule="evenodd" d="M16.6989 34.109C17.3286 33.4793 18.3496 33.4793 18.9793 34.109C19.609 34.7387 19.609 35.7597 18.9793 36.3894C18.3496 37.0191 17.3286 37.0191 16.6989 36.3894C16.0691 35.7597 16.0691 34.7387 16.6989 34.109Z" fill="white"/>
<g clip-path="url(#clip0_32_1221)">
<path d="M28.1145 8.25004C32.2393 8.2648 35.0901 12.491 33.1036 15.7449C32.6419 16.5013 31.8548 17.1169 31.1171 17.6802C30.3927 18.2333 29.7538 18.7138 29.7128 19.7155C29.6791 20.5548 28.7907 21.0829 27.8854 20.9887C27.0658 20.9035 26.4679 20.2425 26.4631 19.4122C26.4546 17.8086 27.2514 16.5922 28.5412 15.62C28.8389 15.3951 29.1619 15.1997 29.4669 14.9851C30.3987 14.3297 30.6374 13.6312 30.2456 12.7226C29.8647 11.8379 28.8714 11.2746 27.8854 11.3825C26.6812 11.5142 25.876 12.3319 25.788 13.5143C25.7217 14.4024 25.1721 15.0032 24.3524 15.0816C23.3134 15.1816 22.5202 14.5115 22.5009 13.5165C22.4443 10.6726 25.0383 8.23868 28.1145 8.25004Z" fill="white"/>
</g>
<path fill-rule="evenodd" clip-rule="evenodd" d="M26.7773 25.2562C26.7773 24.3041 27.5502 23.5312 28.5023 23.5312C29.4545 23.5312 30.2273 24.3041 30.2273 25.2562C30.2273 26.2084 29.4545 26.9812 28.5023 26.9812C27.5502 26.9812 26.7773 26.2084 26.7773 25.2562Z" fill="white"/>
</mask>
<g mask="url(#mask0_32_1221)">
<path d="M-3 8.99999C-3 2.37258 2.37258 -3 9 -3H39C45.6274 -3 51 2.37258 51 9V39C51 45.6274 45.6274 51 39 51H8.99999C2.37258 51 -3 45.6274 -3 39V8.99999Z" fill="url(#paint0_linear_32_1221)"/>
</g>
<defs>
<linearGradient id="paint0_linear_32_1221" x1="16.7629" y1="79.08" x2="78.9826" y2="66.4961" gradientUnits="userSpaceOnUse">
<stop stop-color="#5E8BFF"/>
<stop stop-color="#5E8BFF"/>
<stop offset="0.8894" stop-color="#60EFFF"/>
</linearGradient>
<clipPath id="clip0_32_1221">
<rect width="11.25" height="12.75" fill="white" transform="translate(22.5 8.25)"/>
</clipPath>
</defs>
</svg>
