<svg width="32" height="32" viewBox="0 0 32 32" fill="none" xmlns="http://www.w3.org/2000/svg">
<path fill-rule="evenodd" clip-rule="evenodd" d="M10 4H22.0053C25.316 4 28 6.684 28 9.99467V22.0067C28 25.316 25.316 28 22.0053 28H9.99467C6.684 28 4 25.316 4 22.0053V10C4 6.68667 6.68667 4 10 4V4Z" stroke="#0C61BF" stroke-width="2.4" stroke-linecap="round" stroke-linejoin="round"/>
<path d="M10.8268 14.7988V21.9988" stroke="#0C61BF" stroke-width="2.4" stroke-linecap="round" stroke-linejoin="round"/>
<path d="M15.625 21.9988V17.7988C15.625 16.1415 16.9677 14.7988 18.625 14.7988V14.7988C20.2823 14.7988 21.625 16.1415 21.625 17.7988V21.9988" stroke="#0C61BF" stroke-width="2.4" stroke-linecap="round" stroke-linejoin="round"/>
<path d="M10.8255 10.4487C10.6602 10.4487 10.5255 10.5834 10.5268 10.7487C10.5268 10.914 10.6615 11.0487 10.8268 11.0487C10.9922 11.0487 11.1268 10.914 11.1268 10.7487C11.1268 10.582 10.9922 10.4487 10.8255 10.4487" stroke="#0C61BF" stroke-width="2.4" stroke-linecap="round" stroke-linejoin="round"/>
</svg>
