<svg width="46" height="48" viewBox="0 0 46 48" fill="none" xmlns="http://www.w3.org/2000/svg">
<path d="M0.503906 34.797L10.5677 40.743C13.2342 42.3184 16.6025 40.3963 16.6025 37.2992V22.7227L0.503906 34.797Z" fill="url(#paint0_linear_32_1569)"/>
<path d="M0.503906 34.797L10.5677 40.743C13.2342 42.3184 16.6025 40.3963 16.6025 37.2992V22.7227L0.503906 34.797Z" fill="#1E1E1E" fill-opacity="0.3"/>
<path d="M19.3723 3.27818C22.0383 1.80544 25.3065 3.73376 25.3065 6.77946V18.4422C25.3065 19.8842 24.5304 21.2145 23.2751 21.9242L0.503906 34.7985V16.0616C0.503906 14.6055 1.29517 13.2644 2.56972 12.5603L19.3723 3.27818Z" fill="url(#paint1_linear_32_1569)"/>
<path d="M45.4931 13.2087L35.4292 7.26273C32.7628 5.68731 29.3945 7.60947 29.3945 10.7066V25.2761L45.4931 13.2087Z" fill="url(#paint2_linear_32_1569)"/>
<path d="M45.4931 13.2087L35.4292 7.26273C32.7628 5.68731 29.3945 7.60947 29.3945 10.7066V25.2761L45.4931 13.2087Z" fill="#1E1E1E" fill-opacity="0.3"/>
<path d="M26.6248 44.7225C23.9589 46.1944 20.6914 44.2661 20.6914 41.2208V29.5633C20.6914 28.1214 21.4675 26.791 22.7228 26.0813L45.494 13.207V31.9434C45.494 33.3998 44.7024 34.7411 43.4274 35.4451L26.6248 44.7225Z" fill="url(#paint3_linear_32_1569)"/>
<defs>
<linearGradient id="paint0_linear_32_1569" x1="4.98494" y1="60.7137" x2="27.6521" y2="57.4338" gradientUnits="userSpaceOnUse">
<stop offset="0.21875" stop-color="#FF0F3A"/>
<stop offset="1" stop-color="#F89B29"/>
</linearGradient>
<linearGradient id="paint1_linear_32_1569" x1="7.40772" y1="61.2454" x2="42.3926" y2="56.4073" gradientUnits="userSpaceOnUse">
<stop offset="0.21875" stop-color="#FF0F3A"/>
<stop offset="1" stop-color="#F89B29"/>
</linearGradient>
<linearGradient id="paint2_linear_32_1569" x1="31.2201" y1="32.1813" x2="59.0336" y2="17.2291" gradientUnits="userSpaceOnUse">
<stop stop-color="#F3696E"/>
<stop offset="1" stop-color="#F8A902"/>
</linearGradient>
<linearGradient id="paint3_linear_32_1569" x1="23.5041" y1="59.1318" x2="67.2068" y2="36.6814" gradientUnits="userSpaceOnUse">
<stop stop-color="#F3696E"/>
<stop offset="1" stop-color="#F8A902"/>
</linearGradient>
</defs>
</svg>
