<svg width="48" height="48" viewBox="0 0 48 48" fill="none" xmlns="http://www.w3.org/2000/svg">
<path d="M35.2392 2.60824C34.5163 1.4033 33.2142 0.666016 31.8091 0.666016H6.78906L12.564 25.7819L6.78906 47.3257H31.7976C33.2089 47.3257 34.5158 46.582 35.2366 45.3687L46.7817 25.9344C47.5329 24.6699 47.5295 23.095 46.7729 21.8337L35.2392 2.60824ZM28.3853 34.0893C27.6646 35.3033 26.3574 36.0475 24.9456 36.0475H13.1337L16.1162 24.9219L13.1337 11.9443H24.957C26.3626 11.9443 27.6651 12.6821 28.3878 13.8877L33.1849 21.8904C33.9406 23.1511 33.944 24.7247 33.1937 25.9887L28.3853 34.0893Z" fill="url(#paint0_linear_32_1241)"/>
<path d="M35.2392 2.60824C34.5163 1.4033 33.2142 0.666016 31.8091 0.666016H6.78906L12.564 25.7819L6.78906 47.3257H31.7976C33.2089 47.3257 34.5158 46.582 35.2366 45.3687L46.7817 25.9344C47.5329 24.6699 47.5295 23.095 46.7729 21.8337L35.2392 2.60824ZM28.3853 34.0893C27.6646 35.3033 26.3574 36.0475 24.9456 36.0475H13.1337L16.1162 24.9219L13.1337 11.9443H24.957C26.3626 11.9443 27.6651 12.6821 28.3878 13.8877L33.1849 21.8904C33.9406 23.1511 33.944 24.7247 33.1937 25.9887L28.3853 34.0893Z" fill="#1E1E1E" fill-opacity="0.3"/>
<path d="M6.68231 0.666016L1.11909 10.6098C0.425899 11.8489 0.441428 13.3625 1.15989 14.587L5.50604 21.9945C6.23328 23.234 6.23971 24.7684 5.52289 26.0139L1.14281 33.6248C0.434889 34.8549 0.431784 36.368 1.13465 37.6009L6.68231 47.3327L18.9063 25.878C19.6086 24.6454 19.6054 23.1331 18.8981 21.9034L6.68231 0.666016Z" fill="url(#paint1_linear_32_1241)"/>
<defs>
<linearGradient id="paint0_linear_32_1241" x1="21.8719" y1="71.5888" x2="69.7712" y2="63.0323" gradientUnits="userSpaceOnUse">
<stop stop-color="#5E8BFF"/>
<stop stop-color="#5E8BFF"/>
<stop offset="0.8894" stop-color="#60EFFF"/>
</linearGradient>
<linearGradient id="paint1_linear_32_1241" x1="7.33419" y1="71.5993" x2="31.1891" y2="69.5275" gradientUnits="userSpaceOnUse">
<stop stop-color="#5E8BFF"/>
<stop stop-color="#5E8BFF"/>
<stop offset="0.8894" stop-color="#60EFFF"/>
</linearGradient>
</defs>
</svg>
