<svg width="32" height="32" viewBox="0 0 32 32" fill="none" xmlns="http://www.w3.org/2000/svg">
<path fill-rule="evenodd" clip-rule="evenodd" d="M6.84933 5.22145C8.916 3.72945 11.84 3.60145 14.04 4.87745C16.5213 4.44678 19.1453 4.85612 21.36 6.06278C23.832 7.39078 25.772 9.67078 26.676 12.3294C27.2973 14.1281 27.4413 16.0828 27.1187 17.9574C27.9133 19.3548 28.1893 21.0374 27.8667 22.6148C27.5267 24.3548 26.4533 25.9308 24.9707 26.9001C22.9173 28.2815 20.096 28.3588 17.956 27.1201C15.5733 27.5294 13.0613 27.1748 10.9067 26.0748C8.40133 24.8161 6.404 22.5894 5.42667 19.9614C4.71867 18.0841 4.54133 16.0174 4.87733 14.0414C4.06533 12.6188 3.80267 10.9001 4.14933 9.30012C4.49333 7.66545 5.48267 6.17878 6.84933 5.22145V5.22145Z" stroke="#00A5F7" stroke-width="2.4" stroke-linecap="round" stroke-linejoin="round"/>
<path d="M12.1053 19.2493C12.508 20.4226 14.096 21.3013 16 21.3013C18.6667 21.3013 20 20.1226 20 18.668V18.7013V18.7013C20 17.528 19.152 16.5266 17.9947 16.3346L16 16.0013L14.0053 15.6693C12.848 15.476 12 14.4746 12 13.3013V13.3013C12 11.8466 13.3333 10.668 16 10.668C17.9053 10.668 19.492 11.5466 19.8947 12.72" stroke="#00A5F7" stroke-width="2.4" stroke-linecap="round" stroke-linejoin="round"/>
</svg>
